<?xml version="1.0" encoding="UTF-8"?>
<svg width="31px" height="34px" viewBox="0 0 31 34" version="1.1" xmlns="http://www.w3.org/2000/svg" xmlns:xlink="http://www.w3.org/1999/xlink">
    <title>alt-route-white</title>
    <g id="OnBoarding" stroke="none" stroke-width="1" fill="none" fill-rule="evenodd">
        <g id="assets---Icons" transform="translate(-254, -470)" fill="#FFFFFF" fill-rule="nonzero">
            <g id="alt-route-white" transform="translate(254, 470)">
                <path d="M11.526,15.572 L9.112,17.986 C7.956,16.813 6.834,15.3 6.069,12.988 L9.367,12.155 C9.911,13.668 10.676,14.705 11.526,15.572 Z M13.6,6.8 L6.8,0 L0,6.8 L5.134,6.8 C5.168,8.177 5.27,9.418 5.457,10.489 L8.755,9.656 C8.636,8.84 8.551,7.871 8.534,6.8 L13.6,6.8 Z M30.6,6.8 L23.8,0 L17,6.8 L22.083,6.8 C21.913,13.056 19.907,14.875 17.765,16.796 C16.915,17.544 16.048,18.36 15.3,19.431 C14.722,18.598 14.059,17.935 13.379,17.323 L10.982,19.72 C12.563,21.165 13.6,22.338 13.6,25.5 C13.6,25.5 13.6,25.5 13.6,25.5 L13.6,25.5 L13.6,34 L17,34 L17,25.5 C17,25.5 17,25.5 17,25.5 C17,22.066 18.207,20.978 20.043,19.329 C22.389,17.221 25.279,14.603 25.483,6.8 L30.6,6.8 Z" id="Shape"></path>
            </g>
        </g>
    </g>
</svg>