<?xml version="1.0" encoding="UTF-8"?>
<svg width="119px" height="80px" viewBox="0 0 119 80" version="1.1" xmlns="http://www.w3.org/2000/svg" xmlns:xlink="http://www.w3.org/1999/xlink">
    <title>16869F81-9547-4BB9-B4AE-70DE5CFFE9DB</title>
    <g id="OnBoarding" stroke="none" stroke-width="1" fill="none" fill-rule="evenodd">
        <g id="assets---Other-Images" transform="translate(-903, -3422)" fill="#0D223D" fill-rule="nonzero">
            <g id="washington-outline" transform="translate(903.3847, 3422)">
                <path d="M36.45,79.02 C36.4,79.02 36.16,79 35.93,78.97 C35.79,78.95 35.65,78.94 35.59,78.93 L35.59,78.93 C35.25,78.93 34.99,78.73 34.82,78.57 C34.81,78.57 34.79,78.57 34.78,78.57 C34.59,78.57 34.45,78.56 34.29,78.5 L33.86,78.59 L33.6,78.5 C32.88,78.26 31.76,77.88 31.23,77.7 C31.21,77.7 31.18,77.71 31.15,77.72 C30.78,77.8 30.48,77.66 30.18,77.53 C29.92,77.41 29.7,77.22 29.49,77.03 C29.45,77 29.41,76.96 29.38,76.93 C29.1,76.82 28.73,76.67 28.5,76.3 C28.42,76.19 28.37,76.13 28.28,75.98 C28.08,75.64 28.01,75.21 28.01,75.02 C28.01,74.87 28.04,74.77 28.09,74.58 C28.13,74.42 28.2,74.17 28.22,74 C28.23,73.86 28.22,73.6 28.2,73.44 L28.15,73.32 C27.92,72.79 27.85,72.6 27.82,72.42 C27.79,72.23 27.81,72.06 27.9,71.36 C27.91,71.26 27.93,71.16 27.94,71.08 C27.73,70.59 27.65,70.39 27.64,70.18 C27.62,69.92 27.68,69.68 27.71,69.53 C27.71,69.5 27.72,69.47 27.73,69.43 C27.65,69.35 27.57,69.28 27.52,69.22 C27.32,69 26.54,67.67 26.66,66.92 C26.66,66.89 26.66,66.86 26.68,66.83 C26.5,66.79 26.3,66.73 26.16,66.66 C25.95,66.55 25.82,66.42 25.44,66.01 C25.38,65.95 25.32,65.88 25.27,65.83 C25.13,65.8 24.98,65.75 24.84,65.65 C24.62,65.5 24.5,65.3 24.4,65.06 C24.25,64.98 24.07,64.89 23.92,64.81 C23.87,64.78 23.82,64.76 23.77,64.73 C23.68,64.73 23.56,64.73 23.48,64.73 C23.37,64.77 23.21,64.85 23.09,64.9 L22.89,64.99 C22.89,64.99 22.84,65.03 22.76,65.08 C22.38,65.32 22.21,65.43 21.97,65.48 C21.46,65.59 20.55,65.19 20.41,65.1 C20.39,65.08 18.97,63.91 18.77,63.41 C18.72,63.29 18.67,63.11 18.63,62.94 L18.63,62.89 C18.63,62.89 18.57,62.83 18.55,62.79 C18.53,62.79 18.51,62.79 18.49,62.79 C18.35,62.82 18.1,62.87 17.88,62.92 C17.5133333,63 17.29,63.04 17.21,63.04 C17.21,63.04 15.87,62.88 15.55,62.72 C15.38,62.63 15.23,62.52 15.11,62.4 L15.11,62.4 C14.79,62.62 14.43,62.67 14.1,62.56 C14.07,62.57 14.04,62.58 14.01,62.59 C13.99,62.59 13.97,62.6 13.96,62.61 C13.91,62.65 13.87,62.69 13.82,62.73 L13.59,64.05 L13.36,63.07 C13.21,63.15 13.12,63.18 13.05,63.19 C12.64,63.3 12.3,63.13 12.12,63.04 C12.09,63.03 12.08,63.02 12.08,63.02 C11.57,62.96 11.29,62.63 11.14,62.42 L10.71,63.57 L9.96,62.67 L9.25,63.18 L8.79,61.95 C8.75,61.83 8.71,61.73 8.69,61.64 L7.11,61.32 L9.14,60.1 C9.16,59.88 9.19,59.64 9.21,59.51 C9.23,59.36 9.24,58.6 9.25,58.27 C9.25,58.02 9.25,57.83 9.26,57.77 C9.26,57.58 9.25,55.61 9.23,54.52 L9.23,53.79 C9.23,53.64 9.24,53.11 9.47,52.74 C9.55,52.61 9.66,52.49 9.78,52.41 C9.35,52.22 9.15,52.09 9.02,51.83 L5.66,50.3 L8.88,50.39 C8.88,49.93 8.88,49.47 8.88,49.22 C8.88,49.18 8.85,49.09 8.79,48.89 L8.63,48.84 L8.74,48.73 C8.67,48.52 8.58,48.23 8.44,47.82 L8.43,47.82 C7.86,47.45 7.96,46.83 7.99,46.63 C7.99,46.57 8.01,46.5 8.02,46.44 L8.02,46.21 C8.05,45.76 8.09,44.87 8.12,44.52 C8.14,44.24 8.02,42.8 7.91,41.96 C7.86,41.55 7.58,40.32 7.41,39.63 L7.11,39.37 C6.77,39.02 6.72,38.74 6.71,38.65 C6.7,38.61 6.63,38.39 6.57,38.22 C6.2,37.92 6.07,37.39 6.07,37.1 L6.07,36.84 C6,36.72 5.97,36.63 5.96,36.32 L5.96,36.28 C5.96,36.28 5.96,36.28 5.96,36.28 C5.96,36.07 5.96,35.75 5.96,35.27 C5.96,34.93 5.96,34.62 5.96,34.52 C5.96,34.43 5.92,34.15 5.89,33.88 C5.84,33.47 5.8,33.05 5.8,32.95 C5.78,32.82 5.45,31.2 5.27,30.32 C5.19,29.93 5.13,29.59 5.09,29.39 C5.06,29.35 5.03,29.3 5,29.25 C4.91,29.23 4.82,29.21 4.72,29.16 L4.33,28.96 L4.21,28.53 C4.15,28.31 4.17,28.11 4.23,27.93 C4.23,27.92 4.23,27.91 4.23,27.9 C4.21,27.88 4.18,27.86 4.16,27.84 L3.45,27.93 L3.45,27.47 L3.4,27.47 C3.4,27.47 3.36,27.26 3.36,27.26 L2.61,27.85 L2.44,26.07 C2.44,26.07 2.4,26.02 2.38,25.99 C2.21,25.77 2.13,25.68 2.07,25.49 C2.02,25.33 2.02,25.21 2.03,25.03 L1.84,24.95 L1.84,24.76 C1.84,24.76 1.25,24.72 1.25,24.72 L1.66,23.5 C1.62,23.4 1.58,23.3 1.56,23.18 C1.56,23.14 1.54,22.92 1.55,22.66 C1.55,22.48 1.55,22.28 1.55,22.16 C1.55,22.07 1.5,21.94 1.47,21.84 C1.43,21.68 1.4,21.55 1.39,21.49 C1.37,21.28 1.41,21.1 1.46,20.95 C1.41,20.9 1.36,20.83 1.31,20.75 C1.17,20.51 1.15,20.26 1.17,20.05 C1.12,19.95 1.07,19.85 1.07,19.84 L0.75,19.22 L1.21,18.71 C1.21,18.71 1.42,18.48 1.54,18.34 C1.54,18.34 1.54,18.34 1.54,18.34 C1.46,18.17 1.38,17.99 1.38,17.76 C1.38,17.39 1.56,17.13 1.77,16.91 L1.72,16.66 L1.78,16.38 L0,15.15 L1.15,15.08 L1.2,14.82 C1.2,14.7 1.2,14.54 1.24,14.37 C1.32,14.08 1.52,13.83 1.84,13.61 L2.49,13.17 L2.85,13.49 C3,13.5 3.58,13.55 3.65,13.56 C3.97,13.6 4.19,13.76 4.34,13.96 C4.55,13.99 4.77,14.06 5.01,14.19 C5.2,14.28 5.33,14.42 5.54,14.69 C5.71,14.73 5.94,14.8 6.13,14.99 C6.19,15.05 6.61,15.41 6.84,15.61 C7.01,15.66 7.21,15.75 7.39,15.92 C7.41,15.94 7.43,15.96 7.44,15.98 L8.08,15.88 L8.35,16.37 C8.44,16.39 8.53,16.42 8.62,16.46 C8.68,16.49 8.73,16.52 8.78,16.55 C9.03,16.48 9.37,16.49 9.77,16.75 C9.8,16.76 9.82,16.78 9.86,16.81 L9.84,16.36 L11.18,17.63 C11.35,17.69 11.53,17.76 11.63,17.82 C11.71,17.87 11.99,18.06 12.09,18.45 C12.18,18.49 12.24,18.52 12.25,18.53 C12.35,18.6 12.43,18.68 12.5,18.77 C12.65,18.82 12.8,18.87 12.91,18.9 C12.96,18.9 13.06,18.9 13.12,18.88 C13.41,18.8 13.72,18.86 13.97,19.03 C14.42,19.03 14.5,19.05 14.57,19.07 L14.69,19.1 L16.12,18.83 L16.12,19.11 C16.12,19.11 16.13,19.11 16.14,19.11 L16.72,18.9 L16.84,19 C17.15,18.97 17.43,19.11 17.6,19.19 C17.64,19.21 17.68,19.23 17.72,19.24 C17.98,19.29 18.2,19.4 18.39,19.6 C18.39,19.6 18.39,19.6 18.39,19.6 C18.43,19.58 18.47,19.55 18.51,19.54 C18.92,19.33 19.37,19.36 19.73,19.62 C19.82,19.67 19.89,19.73 19.96,19.79 C20.02,19.78 20.08,19.76 20.13,19.75 C20.29,19.71 20.41,19.68 20.45,19.68 C20.56,19.67 20.69,19.65 21.32,19.76 L23.53,20.13 C23.53,20.13 23.58,20.1 23.61,20.08 C23.71,19.97 23.84,19.78 23.93,19.66 C24.08,19.45 24.15,19.37 24.28,19.27 C24.33,19.23 24.4,19.19 24.48,19.15 L25.6,17.9 L25.74,18.79 L26.05,18.72 L26.44,19.28 C26.68,19.64 26.65,20.04 26.52,20.34 C26.69,20.5 26.78,20.61 26.84,20.68 L28.15,20.9 C28.25,20.8 28.37,20.69 28.51,20.55 L28.7,20.37 C28.96,20.1 29.28,19.97 30.56,19.93 L32.2,19.87 L31.74,20.85 L32.56,20.73 L32.49,21.94 C32.49,21.94 32.49,21.97 32.49,22.02 L33.05,21.22 C33.03,21.15 33,21.05 32.97,20.96 C32.79,20.34 32.79,20.33 32.79,20.17 C32.79,20.09 32.79,20.02 32.81,19.95 L32.75,19.78 L32.82,19.02 L32.82,19.02 C32.82,19.02 32.86,18.27 33.37,17.93 C33.42,17.9 33.82,17.67 34.16,17.61 C34.23,17.53 34.3,17.47 34.37,17.42 C34.34,17.39 34.31,17.36 34.27,17.33 L32.55,17.33 L33.06,16.45 C33.01,16.35 32.97,16.23 32.95,16.09 L30.97,16.42 L31.09,15.77 L28.78,15.54 L30.93,14.8 C30.9,14.64 30.88,14.49 30.88,14.46 C30.88,14.37 30.89,14.28 30.91,14.2 L30.31,13.06 L30.84,12.55 C30.84,12.55 31.14,12.26 31.2,12.21 C31.38,12.06 31.71,11.91 32.1,12 C32.36,11.9 32.65,11.79 32.65,11.79 L32.69,11.77 C32.65,11.57 32.65,11.4 32.69,11.23 L33.08,9.39 L33.38,9.66 C33.38,9.52 33.41,9.38 33.46,9.25 L33.37,8.89 C33.01,9.42 32.84,9.48 32.44,9.48 C32.08,9.48 31.84,9.33 31.68,9.13 L30.63,9.13 L31.14,7.85 L31.02,7.76 C30.57,7.43 30.51,6.93 30.55,6.06 L30.51,5.93 C30.39,5.82 30.26,5.69 30.14,5.58 C29.89,5.35 29.7,5.15 29.68,5.12 L29.31,4.64 L29.51,4.19 C29.39,4.08 29.32,3.99 29.31,3.98 C28.94,3.51 29.14,2.99 29.22,2.79 C29.25,2.67 29.3,2.58 29.46,2.37 L29.43,2.27 L29.7,2.07 C29.79,1.96 29.9,1.83 30.03,1.67 L29.95,1.13 L30.47,1.15 L31.43,0 L31.63,1.18 L48.45,1.57 L73.73,1.66 L96.99,1.38 L114.09,0.92 L114.47,17.44 L115.19,39.71 C115.4,45.74 115.8,57.05 115.84,58.18 C115.9,58.39 115.94,58.53 115.94,58.69 C115.94,58.88 115.92,58.94 115.7,59.58 C115.75,59.62 115.79,59.66 115.84,59.7 C116.01,59.88 116.1,60.09 116.15,60.29 C116.15,60.29 116.15,60.29 116.15,60.29 C116.43,60.54 116.59,60.67 116.68,60.96 C116.73,61.09 116.73,61.22 116.72,61.36 L116.8,61.46 C116.87,61.56 116.92,61.64 117.1,62.12 L117.18,62.34 L117.16,62.57 C117.16,62.57 117.14,62.74 117.13,62.92 C117.13,62.92 117.13,62.92 117.14,62.93 C117.45,63.26 117.63,63.45 117.71,63.73 C117.78,63.97 117.84,64.18 117.29,65.71 C117.33,65.76 117.36,65.82 117.39,65.88 C117.41,65.91 117.42,65.94 117.98,67.43 L118.48,68.75 L103.69,69.15 C97.5,69.23 88.39,69.37 86.42,69.42 C86.32,69.55 86.21,69.7 86.16,69.78 C85.91,70.18 84.75,70.7 84.52,70.81 C84.51,70.81 83.19,71.34 82.63,71.14 C82.59,71.13 82.02,70.97 81.85,70.94 C81.82,70.94 81.54,70.94 81.38,70.95 C81.32,70.97 81.23,71 81.14,71.03 C80.63,71.2 80.44,71.26 80.22,71.26 C80.16,71.26 79.89,71.3 79.65,71.33 C79.48,71.35 79.33,71.37 79.21,71.38 C79.11,71.41 78.95,71.48 78.81,71.53 C78.66,71.59 78.53,71.64 78.49,71.65 C78.22,71.73 77.92,71.73 77.56,71.63 C77.43,71.59 77.31,71.54 77.14,71.44 C76.53,72.33 76.26,72.59 75.88,72.69 C75.73,72.73 75.49,72.76 74.35,72.89 C73.99,72.93 73.66,72.97 73.51,72.99 C73.31,73.06 72.79,73.25 72.63,73.32 C72.4,73.46 72.13,73.52 71.43,73.48 C70.5,74.11 70.4,74.14 70.22,74.17 C70.1,74.2 69.47,74.4 69.29,74.47 C69.22,74.51 69.15,74.55 69.07,74.59 C69,74.63 68.93,74.66 68.86,74.7 C68.82,74.76 68.77,74.83 68.71,74.92 L68.54,75.16 C68.28,75.6 67.7,75.73 67.43,75.73 C67.43,75.73 67.28,75.75 67.11,75.76 C66.92,75.78 66.7,75.8 66.56,75.8 C66.48,75.83 66.37,75.87 66.27,75.91 C66.04,76 65.92,76.04 65.77,76.06 C65.66,76.07 65.33,76.12 64.95,76.18 C63.57,76.39 63.56,76.39 63.45,76.39 C62.94,76.39 62.29,75.86 62.17,75.75 C62.12,75.71 61.99,75.57 61.84,75.42 C61.78,75.36 61.72,75.29 61.66,75.23 C61.64,75.23 61.62,75.23 61.61,75.23 C61.54,75.24 61.45,75.26 61.37,75.28 C61.35,75.3 61.32,75.33 61.29,75.36 C61.14,75.51 61.01,75.65 60.84,75.75 C60.69,75.85 60.49,75.93 59.01,76.49 C58.72,76.6 58.46,76.7 58.33,76.75 C58.25,76.81 58.15,76.91 58.07,76.99 C57.91,77.14 57.78,77.25 57.73,77.28 C57.33,77.53 56.85,77.62 56.32,77.31 C56.25,77.34 56.17,77.37 56.08,77.38 C55.7,77.45 55.44,77.3 55.24,77.18 C55.15,77.18 55.04,77.18 54.95,77.18 L54.94,77.18 C54.94,77.18 54.86,77.3 54.79,77.38 C54.67,77.53 54.54,77.7 54.46,77.78 C54.16,78.12 53.71,78.22 53.27,78.29 C52.84,78.38 52.48,78.26 52.14,77.96 C51.81,77.67 51.76,77.32 51.66,76.69 C51.66,76.69 51.66,76.69 51.66,76.69 C51.41,76.64 51.17,76.59 50.95,76.46 C50.84,76.39 50.69,76.27 50.55,76.14 L50.53,76.12 C50.44,76.12 50.32,76.1 50.22,76.1 C50.15,76.12 50.05,76.16 49.96,76.19 C49.8,76.24 49.65,76.29 49.58,76.31 C49.07,76.45 48.65,76.2 47.91,75.76 C47.83,75.71 47.76,75.67 47.71,75.64 C47.68,75.63 47.64,75.62 47.61,75.61 C46.34,75.94 46.27,75.95 46.16,75.96 C46.08,75.96 45.89,75.98 45.74,75.99 L45.69,76.01 C45.42,76.14 45.18,76.25 44.89,76.25 C44.75,76.25 44.64,76.23 43.88,76.08 C43.69,76.04 43.5,76 43.36,75.98 C43.29,76.02 43.21,76.06 43.15,76.09 C43.03,76.15 42.93,76.2 42.88,76.22 C42.88,76.22 42.88,76.22 42.87,76.22 C42.87,76.22 42.87,76.22 42.87,76.22 L42.8,76.61 L42.48,76.85 C42.36,76.94 42.03,77.16 41.67,77.23 C41.67,77.23 41.65,77.23 41.65,77.23 C41.52,77.35 41.39,77.44 41.22,77.5 C41.1,77.54 40.99,77.56 40.76,77.58 C40.68,77.66 40.57,77.74 40.44,77.8 C40.26,77.91 39.95,78.1 39.55,78.14 C39.41,78.16 38.78,78.31 38.64,78.35 C38.64,78.35 38.48,78.47 38.44,78.5 C38.33,78.58 38.22,78.63 37.82,78.79 L37.59,78.89 C37.49,78.94 37.26,79.04 36.38,79.04 L36.45,79.02 Z M38.15,75.66 L36.64,77.01 C36.73,77.01 36.84,77.01 36.93,76.99 C36.99,76.97 37.06,76.94 37.13,76.91 C37.23,76.87 37.34,76.82 37.42,76.79 C37.57,76.69 37.82,76.52 38,76.45 C38.19,76.37 39,76.17 39.38,76.12 C39.41,76.11 39.43,76.09 39.46,76.07 C39.46,76.07 39.47,76.07 39.48,76.06 C39.58,75.92 39.74,75.75 40.02,75.65 C40.15,75.61 40.26,75.59 40.48,75.57 L40.79,75.15 L41.16,75.2 C41.26,74.97 41.41,74.77 41.66,74.64 C41.87,74.51 42.08,74.39 42.19,74.34 L42.31,74.28 C42.76,74.04 43.03,73.91 43.34,73.91 C43.48,73.91 43.59,73.93 44.35,74.08 C44.54,74.12 44.74,74.16 44.88,74.18 C44.9,74.18 44.92,74.16 44.93,74.15 C45.17,74.04 45.36,73.95 45.61,73.95 C45.69,73.95 45.96,73.93 46.05,73.92 C46.17,73.89 46.97,73.68 47.24,73.61 C47.45,73.55 47.77,73.47 48.5,73.72 C48.63,73.77 48.75,73.84 49.01,73.99 C49.1,74.05 49.28,74.15 49.43,74.23 C49.89,74.08 50,74.04 50.19,74.04 C50.62,74.04 51.21,74.08 51.53,74.26 C51.69,74.35 51.83,74.47 51.96,74.59 C51.98,74.61 52.01,74.63 52.03,74.65 C52.07,74.65 52.12,74.67 52.17,74.68 C52.46,74.73 52.78,74.79 53.03,75.03 C53.18,75.14 53.44,75.35 53.58,75.72 C53.74,75.55 54.09,75.24 54.51,75.16 C54.69,75.12 54.93,75.11 55.5,75.13 C55.69,75.13 55.85,75.17 55.98,75.22 C56.3,75.09 56.68,75.01 57.04,75.22 C57.2,75.08 57.34,74.98 57.48,74.91 C57.55,74.88 57.92,74.74 58.37,74.56 C58.8,74.4 59.56,74.11 59.82,74 C59.85,73.97 59.89,73.93 59.92,73.89 C60.16,73.64 60.39,73.41 60.75,73.32 C61.33,73.18 61.6,73.13 61.87,73.17 C62.18,73.2 62.54,73.23 62.84,73.47 C62.91,73.53 63.15,73.77 63.35,73.99 C63.44,74.09 63.52,74.18 63.56,74.21 C63.56,74.21 63.63,74.25 63.7,74.3 C63.93,74.26 64.34,74.2 64.71,74.15 C65.14,74.09 65.37,74.05 65.5,74.03 L65.6,73.99 C66.01,73.83 66.22,73.76 66.45,73.76 C66.51,73.76 66.75,73.73 66.97,73.72 C67.02,73.72 67.07,73.72 67.11,73.71 C67.18,73.62 67.24,73.52 67.29,73.45 C67.43,73.15 67.69,73.02 68.2,72.77 L68.41,72.66 L68.41,72.66 C68.72,72.5 69.36,72.31 69.67,72.23 C69.84,72.13 70.27,71.84 70.61,71.6 L70.9,71.4 L71.26,71.43 C71.47,71.45 71.71,71.46 71.85,71.46 C72.29,71.26 72.99,71.03 72.99,71.03 C73.11,70.99 73.16,70.98 74.14,70.87 C74.51,70.83 74.9,70.79 75.16,70.75 C75.26,70.62 75.43,70.38 75.71,69.96 L75.78,69.85 C76.07,69.45 76.91,69.18 77.35,69.28 C77.55,69.32 77.72,69.42 78,69.58 C78.03,69.6 78.06,69.62 78.09,69.63 L78.09,69.63 C78.63,69.42 78.8,69.36 79.03,69.36 C79.03,69.36 79.22,69.33 79.41,69.31 C79.66,69.28 79.92,69.25 80.09,69.23 C80.19,69.2 80.35,69.15 80.5,69.09 C80.91,68.95 81.04,68.9 81.25,68.9 L81.36,68.9 C81.58,68.9 81.98,68.9 82.09,68.9 C82.27,68.92 82.71,69.03 83.01,69.12 C83.27,69.05 83.69,68.94 83.79,68.91 C83.84,68.88 84.36,68.61 84.62,68.46 C85.17,67.66 85.47,67.53 85.58,67.48 C85.83,67.37 85.88,67.35 103.66,67.11 L115.5,66.79 C115.5,66.79 115.47,66.76 115.45,66.74 C115.4,66.71 115.19,66.54 115.07,66.26 C114.91,65.89 114.91,65.54 115.07,65.24 C115.17,65.02 115.34,64.9 115.48,64.79 C115.54,64.62 115.6,64.41 115.66,64.23 C115.31,63.86 115.1,63.62 115.1,63.2 C115.1,63.15 115.13,62.8 115.15,62.56 C115.15,62.56 115.15,62.54 115.14,62.53 C114.84,62.17 114.69,61.97 114.68,61.61 C114.51,61.46 114.42,61.36 114.34,61.2 C114.3,61.12 114.28,61.05 114.26,60.98 C114.16,60.92 114.08,60.86 114,60.78 C113.88,60.68 113.46,60.3 113.54,59.71 C113.55,59.6 113.58,59.52 113.77,58.96 C113.81,58.84 113.85,58.72 113.89,58.61 C113.87,58.54 113.86,58.48 113.85,58.46 C113.836667,58.3933333 113.613333,52.15 113.18,39.73 L112.46,17.45 L112.13,2.93 L97.02,3.34 L73.73,3.62 L48.42,3.53 L32.37,3.16 C32.35,3.23 32.33,3.3 32.3,3.37 C32.25,3.47 32.19,3.56 32.12,3.63 L32.12,3.63 C32.16,3.85 32.23,4.22 32.02,4.56 C32.5,5.03 32.56,5.17 32.56,5.53 L32.56,5.65 C32.56,5.65 32.56,5.65 32.56,5.66 C32.68,5.73 32.8,5.83 32.9,5.98 C32.91,6 32.93,6.03 32.95,6.07 L33.12,6.14 L33.25,6 L33.81,6.04 C34.39,6.13 34.61,6.28 34.69,6.34 C34.74,6.37 34.83,6.44 35.03,6.66 C35.52,6.83 35.69,7.18 35.75,7.4 C35.78,7.51 35.82,7.76 35.82,7.76 L35.88,8.16 L35.58,8.57 C35.63,8.7 35.66,8.83 35.66,8.97 C35.66,9.02 35.7,9.35 35.7,9.35 L35.74,9.66 C35.98,9.83 36.04,9.89 36.07,9.93 C36.15,10.01 36.25,10.11 36.53,10.72 L36.72,11.13 L36.54,11.52 C36.54,11.52 36.45,11.73 36.36,11.91 L38.21,14.01 L35.88,13.3 C35.97,13.52 36.02,13.76 35.94,14.04 C35.93,14.11 35.91,14.23 35.91,14.23 L35.76,15.09 L35.76,15.89 C35.76,15.89 35.83,15.96 35.86,15.98 L36.02,16.07 C36.28,16.22 36.42,16.31 36.52,16.4 L39.32,15.5 L37.52,17.59 L37.33,18.05 C37.27,18.19 37.19,18.3 37.05,18.5 C37.04,18.52 37.02,18.54 37.01,18.55 C37.01,18.61 37,18.65 37,18.65 L37,18.72 C37.08,18.8 37.18,18.94 37.26,19.11 C37.38,19.4 37.43,20.1 37.43,20.11 C37.43,20.32 37.38,20.45 37.28,20.7 L37.24,20.81 C37.24,20.86 37.24,20.94 37.24,21 C37.27,21.09 37.33,21.24 37.39,21.38 L37.51,21.45 L37.84,21.91 L38.13,21.95 L38.89,20.81 L39.34,22.4 L42.34,25.31 L40.22,24.85 L40.69,26.88 L39.12,25.34 C39.04,25.44 38.95,25.53 38.86,25.59 C38.81,25.65 38.73,25.74 38.61,25.82 C38.44,25.94 38.3,25.97 38,26.05 C37.98,26.05 37.95,26.06 37.93,26.07 C37.93,26.07 37.93,26.07 37.93,26.08 C37.9,26.19 37.86,26.28 37.75,26.49 C37.71,26.56 37.67,26.64 37.64,26.71 C37.62,26.92 37.58,27.5 37.58,27.5 L37.56,27.83 L37.35,28.08 C37.35,28.08 36.94,28.56 36.69,28.86 C36.78,29.03 36.85,29.22 36.85,29.44 C36.85,29.4 36.87,29.49 36.89,29.59 C36.93,29.83 36.97,30.09 36.97,30.16 C36.97,30.43 36.97,31.13 36.43,31.45 C36.43,31.47 36.43,31.48 36.43,31.48 L36.43,31.56 C36.52,31.62 36.6,31.68 36.67,31.75 L36.73,31.8 C37.08,32.1 37.33,32.31 37.4,32.72 C37.42,32.87 37.41,32.99 37.38,33.41 C37.38,33.5 37.36,33.6 37.36,33.67 C37.37,33.7 37.38,33.73 37.4,33.76 C37.54,33.94 37.85,34.33 37.85,34.33 L39.14,35.95 L37.03,35.95 C37.1,36.06 37.15,36.18 37.17,36.33 C37.17,36.35 37.18,36.43 37.19,36.52 C37.38,36.73 37.52,37 37.53,37.34 C37.59,38.54 37.61,38.97 37.18,39.33 C37.02,39.47 36.85,39.53 36.56,39.63 L36.51,39.76 C36.51,39.76 36.52,39.81 36.53,39.84 L36.53,39.91 C36.53,39.91 42.28,45.63 42.28,45.63 L35.28,41.33 C35.28,41.33 35.23,41.33 35.21,41.33 L35.13,41.39 L34.7,41.33 C34.45,41.29 34.27,41.18 34.15,41.06 L34.06,41.27 L33.94,41.14 C33.94,41.14 33.89,41.23 33.88,41.26 L33.88,41.26 C33.88,41.26 33.85,41.37 33.82,41.49 C33.67,42.04 33.61,42.25 33.5,42.43 C33.4,42.59 33.22,42.77 33.07,42.9 C33.06,42.95 33.04,42.99 33.04,43.01 C33.01,43.14 32.88,43.54 32.51,43.81 C32.43,43.87 32.35,43.92 32.27,43.95 C32.04,44.32 31.98,44.41 31.89,44.51 C31.87,44.53 31.61,44.8 31.24,44.89 L28.67,51.06 L29.25,45.79 L28.29,45.79 C28.23,45.83 28.17,45.86 28.09,45.88 L27.49,46.09 L27.27,45.87 C27.27,45.87 27.24,45.9 27.22,45.92 L25.36,47.95 L25.46,45.75 L24.29,48.03 L24.29,45.6 L24.16,45.69 L24.16,43.76 C24.16,43.66 24.17,43.47 24.25,43.26 L23.87,42.71 L24.33,42.33 L23.41,42.33 L24.43,40.49 L24.68,40.36 L25.39,39.52 L26.28,39.17 C26.08,39.2 25.81,39.24 25.54,39.22 L25.54,39.22 C25.29,39.37 25.07,39.47 24.81,39.47 C24.46,39.47 23.51,39.06 23.32,38.42 C23.29,38.3 23.26,38.14 23.28,37.66 L23.32,36.95 L23.6,36.87 C23.84,36.03 24.08,35.47 24.3,35.2 L24.49,34.97 C24.65,34.78 24.84,34.55 24.96,34.4 C25.02,34.08 25.05,33.9 25.16,33.73 C25.2,33.65 25.26,33.51 25.3,33.42 L25.35,33.31 C25.45,33.11 25.59,32.99 25.71,32.89 C26.21,31.74 26.41,31.6 26.54,31.51 C26.56,31.5 26.69,31.43 26.84,31.35 L27.38,30.53 C27.38,30.44 27.38,30.35 27.39,30.26 L27.47,29.85 L27.63,29.74 C27.63,29.74 27.63,29.69 27.63,29.69 L27.8,28.78 C27.67,27.95 27.89,27.62 28.03,27.48 C28.08,27.32 28.17,27.17 28.3,27.05 L27.51,25.64 L29.06,26.22 L29.87,25.16 L30.06,25.53 L30.56,25.53 C30.56,25.53 30.56,25.45 30.56,25.41 L30.44,25.08 C30.4,25.03 30.36,24.97 30.33,24.91 C30.29,24.84 30.26,24.78 30.2,24.56 L30.1,24.56 C30.02,24.66 29.94,24.76 29.84,24.84 C29.64,25 29.44,25.08 28.92,25.19 L26.41,25.73 L27.39,24.35 L27.15,24.57 L26.42,24.2 C26.23,24.08 26.15,24.01 25.58,23.14 L25.55,23.09 L24.96,26.19 L24.29,21.95 C23.94,22.18 23.76,22.28 23.47,22.28 C23.28,22.28 23.15,22.23 23,22.18 C22.9,22.21 22.79,22.24 22.65,22.26 C22.6,22.26 21.5,22.31 21.17,22.22 C21.09,22.19 20.1,21.82 20.1,21.82 L19.96,21.77 C19.63,21.82 19.38,21.79 19.12,21.62 C19.07,21.59 19.03,21.56 18.99,21.52 C18.82,21.61 18.66,21.66 18.45,21.66 C18.2,21.66 17.71,21.52 17.7,21.52 C17.36,21.42 17.14,21.26 17.01,21.09 L14.69,22.93 L15.27,21.08 C15.19,21.08 15.11,21.06 15.02,21.05 L14.84,21.02 L12.87,21.39 L13.05,20.93 L12.38,20.93 C12.38,20.93 12.4,20.72 12.4,20.72 C12.24,20.67 11.99,20.59 11.58,20.46 L11.58,20.46 C11.58,20.46 11.54,20.57 11.54,20.57 L11.33,20.37 L11.21,20.33 L11.13,20.18 L10.92,19.99 C10.75,19.92 10.6,19.85 10.58,19.84 C10.29,19.69 10.15,19.46 10.08,19.23 C9.93,19.14 9.68,18.97 9.2,18.64 C9.17,18.62 9.14,18.6 9.11,18.58 C8.66,18.69 8.04,18.6 7.72,18.27 C7.68,18.24 7.65,18.2 7.63,18.16 C7.45,18.12 7.28,18.05 7.13,17.92 C7.08,17.92 7.03,17.9 6.98,17.89 C6.73,17.82 6.44,17.71 6.23,17.49 C6.2,17.46 6.17,17.42 6.14,17.39 C6.08,17.37 6.03,17.35 5.97,17.32 C5.8,17.23 5.28,16.77 4.97,16.5 C4.69,16.43 4.38,16.32 4.17,16.03 C4.17,16.03 4.17,16.03 4.16,16.02 C4.16,16.03 4.16,16.05 4.15,16.06 C4.15,16.15 4.15,16.23 4.12,16.32 C4.12,16.43 4.08,16.76 3.83,17.04 C3.81,17.38 3.73,17.66 3.59,17.87 C3.61,17.96 3.63,18.06 3.63,18.16 C3.63,18.33 3.51,19.05 3.25,19.4 C3.24,19.42 3.21,19.45 3.18,19.49 C3.21,19.59 3.24,19.68 3.25,19.77 C3.41,19.98 3.49,20.21 3.51,20.47 C3.53,20.53 3.59,20.72 3.57,20.97 C3.56,21.1 3.52,21.22 3.48,21.33 C3.54,21.56 3.59,21.78 3.6,22.01 C3.6,22.15 3.6,22.4 3.6,22.62 C3.6,22.67 3.6,22.72 3.6,22.77 C3.7,23.01 3.78,23.23 3.76,23.49 C3.78,23.55 3.8,23.61 3.81,23.68 C3.97,23.87 4.08,24.1 4.1,24.39 C4.1,24.47 4.1,24.61 4.1,24.75 C4.24,24.8 4.35,24.87 4.43,24.93 C4.44,24.93 4.46,24.95 4.48,24.97 C4.59,25 4.7,25.06 4.79,25.13 L5.2,25.43 L5.2,25.88 C5.2,25.88 5.24,25.91 5.26,25.93 C5.34,25.99 5.42,26.05 5.49,26.13 C5.85,26.26 6.01,26.53 6.08,26.71 C6.11,26.78 6.12,26.83 6.29,27.51 C6.33,27.55 6.38,27.59 6.42,27.64 C6.42,27.64 7.07,28.4 7.13,28.91 C7.13,28.95 7.22,29.37 7.33,29.89 C7.89,32.7 7.89,32.75 7.89,32.91 C7.89,33 7.93,33.31 7.97,33.61 C8.01,33.95 8.05,34.28 8.05,34.39 C8.05,34.49 8.05,34.85 8.05,35.24 C8.05,35.51 8.05,35.79 8.05,35.99 C8.1,36.07 8.14,36.17 8.16,36.29 C8.18,36.41 8.19,36.51 8.18,36.69 C8.26,36.72 8.31,36.74 8.31,36.74 L8.94,36.99 L8.94,37.99 C9.01,38.06 9.07,38.15 9.14,38.25 C9.42,38.66 9.97,41.65 9.97,41.68 C9.97,41.69 10.07,42.52 10.14,43.33 C10.25,43.34 10.36,43.37 10.48,43.41 C10.53,43.42 10.63,43.44 10.72,43.45 C10.87,43.47 11,43.5 11.06,43.52 C11.4,43.63 12.16,43.94 12.26,44.61 C12.33,44.69 12.38,44.77 12.42,44.86 C12.52,44.86 12.57,44.88 12.61,44.89 C12.64,44.89 12.9,44.89 12.91,44.89 L15.36,44.94 L17.3,44.46 L16.86,44.97 L18.88,45.01 L16.03,45.92 L15.24,46.83 C15,47.11 14.93,47.16 14.88,47.2 C14.71,47.33 14.55,47.38 14.18,47.45 L14.18,47.45 C14.18,47.45 14.03,47.58 14.03,47.58 L13.84,47.64 C13.75,47.67 13.67,47.7 13.59,47.72 L18.07,48.79 L12.97,49.11 L13.05,49.94 C13.13,49.94 13.21,49.94 13.29,49.96 L13.58,50.03 L13.9,49.94 L13.95,50.12 L14.06,50.15 L14.08,50.65 C14.19,50.7 14.28,50.74 14.28,50.74 L16.24,51.65 L16.07,51.73 L16.9,52.06 L16.79,52.1 L17.91,52.41 L15.2,53.54 L17.07,54.29 L13.9,54.5 C13.86,54.62 13.81,54.73 13.74,54.85 L13.72,54.89 C13.8,55.03 13.85,55.19 13.85,55.39 C13.85,55.42 13.85,55.54 13.82,55.68 C13.93,55.94 13.94,56.2 13.84,56.46 C13.75,56.69 13.59,56.87 13.37,57 C13.39,57.03 13.4,57.06 13.42,57.1 C13.88,57.32 14.04,57.44 14.18,57.64 C14.24,57.73 14.29,57.81 14.5,58.36 L14.6,58.61 L14.31,60.24 C14.31,60.24 14.37,60.2 14.41,60.19 L14.41,60.12 C14.41,60.12 15.45,59.58 15.45,59.58 L15.73,59.76 C15.91,59.76 16.11,59.78 16.31,59.91 L16.79,60.2 L16.79,60.86 C16.95,60.89 17.12,60.91 17.24,60.93 C17.32,60.91 17.41,60.89 17.51,60.87 C17.88,60.79 18.32,60.7 18.39,60.69 C18.69,60.66 19.26,60.77 19.52,60.88 C20.05,61.11 20.49,61.9 20.55,62.09 C20.58,62.16 20.6,62.27 20.63,62.38 C20.63,62.4 20.63,62.42 20.64,62.44 C20.85,62.66 21.32,63.1 21.55,63.3 C21.58,63.31 21.62,63.32 21.66,63.34 C21.68,63.33 21.71,63.31 21.73,63.3 C21.93,63.18 22.11,63.07 22.17,63.04 L22.3,62.98 C22.77,62.77 22.96,62.69 23.14,62.66 C23.16,62.66 24.15,62.53 24.62,62.81 L24.87,62.94 C25.87,63.46 25.89,63.47 26.04,63.7 C26.07,63.74 26.1,63.8 26.14,63.88 C26.21,63.91 26.27,63.94 26.34,63.98 C26.49,64.07 26.6,64.19 26.93,64.54 C27.01,64.62 27.09,64.71 27.16,64.78 C27.4,64.81 27.84,64.9 28.12,65.14 C28.3,65.28 28.74,65.64 28.78,66.22 C28.82,66.47 28.87,66.73 28.78,67.03 L28.76,67.11 C28.85,67.36 29.03,67.72 29.11,67.84 C29.14,67.86 29.22,67.93 29.29,67.99 C30.03,68.6 30.2,69.18 29.79,69.73 C29.79,69.74 29.74,69.83 29.73,69.86 L29.73,69.91 C29.73,69.91 29.73,69.91 29.73,69.91 C29.77,70.02 29.84,70.16 29.88,70.26 C29.94,70.39 29.97,70.48 29.98,70.51 C30.06,70.76 30.04,70.89 29.96,71.53 C29.94,71.71 29.91,71.91 29.9,72.04 C29.95,72.16 30.01,72.31 30.07,72.43 C30.19,72.71 30.22,72.78 30.25,72.91 C30.27,73.03 30.34,73.64 30.3,74.09 C30.28,74.36 30.2,74.66 30.13,74.95 C30.13,74.95 30.13,74.95 30.13,74.95 C30.14,74.95 30.15,74.95 30.16,74.96 L30.3,75.02 C30.53,75.11 30.7,75.27 30.91,75.46 C30.96,75.5 31.01,75.55 31.05,75.59 C31.24,75.55 31.48,75.55 31.74,75.65 C31.9,75.71 33.43,76.23 34.05,76.44 L38.21,75.58 L38.15,75.66 Z M71.75,71.55 C71.75,71.55 71.65,71.6 71.59,71.64 C71.63,71.61 71.68,71.58 71.75,71.55 Z M12.8,60.57 L12.8,60.85 C12.8,60.85 12.84,60.82 12.86,60.81 L12.8,60.57 Z M11.72,50.03 L12.11,50.29 L11.84,49.86 L11.71,50.03 L11.72,50.03 Z M29.06,44.98 L29.24,45.8 L29.33,44.96 L29.06,44.98 Z M27.62,39.57 L27.69,39.57 C27.69,39.57 27.65,39.45 27.65,39.45 C27.65,39.44 27.64,39.43 27.63,39.42 L27.63,39.42 C27.63,39.42 27.63,39.42 27.63,39.42 L27.53,39.42 C27.53,39.42 27.53,39.14 27.53,39.14 L26.87,38.99 C26.75,39.07 26.65,39.12 26.57,39.16 L26.69,39.37 L27.62,39.58 L27.62,39.57 Z M26.37,39.23 L26.47,39.29 L26.47,39.2 C26.47,39.2 26.4,39.22 26.37,39.23 Z M27.42,38.57 L27.49,38.76 C27.49,38.76 27.51,38.76 27.52,38.75 L27.52,38.55 C27.52,38.55 27.45,38.56 27.43,38.57 C27.43,38.57 27.43,38.57 27.42,38.57 Z M34.3,38.44 L34.3,38.44 C34.46,38.31 34.68,38.22 34.95,38.18 C35.03,38.12 35.13,38.06 35.25,38.02 C35.29,38.01 35.32,38 35.36,37.99 C35.41,37.97 35.46,37.95 35.51,37.93 L35.28,37.84 L35.22,37.22 C35.22,37.22 35.22,37.2 35.22,37.16 L34.49,36.82 L34.49,36.82 C34.49,36.82 34.4,37.18 34.4,37.18 L34.3,37.47 C34.36,37.59 34.38,37.67 34.4,37.76 C34.46,38.03 34.4,38.26 34.3,38.44 L34.3,38.44 Z M30.31,37.09 L30.65,37.35 L30.84,36.89 L30.57,36.26 L30.99,36.52 L31.35,35.64 L31.26,35.5 L30.04,35.69 L29.99,36.31 L30.13,36.35 L30.23,36.88 C30.26,36.95 30.29,37.02 30.31,37.1 L30.31,37.09 Z M26.57,36.33 L26.6,36.41 C26.6,36.41 26.67,36.38 26.71,36.36 C26.75,36.34 27.01,36.24 27.24,36.15 L27.26,36.1 L26.67,36.19 C26.67,36.19 26.6,36.28 26.57,36.32 L26.57,36.33 Z M31.45,35.83 L31.43,36.36 L31.55,35.99 L31.46,35.83 L31.45,35.83 Z M34.54,36.2 L34.54,36.23 C34.54,36.23 34.9,35.79 34.9,35.79 C34.9,35.79 34.9,35.77 34.9,35.76 C34.88,35.74 34.87,35.72 34.85,35.69 C34.78,35.81 34.69,35.95 34.57,36.14 L34.53,36.2 L34.54,36.2 Z M27.24,35 C27.24,35 27.24,35.03 27.24,35.04 C27.22,35.19 27.2,35.35 27.15,35.5 L27.43,35.35 L27.43,34.81 C27.35,34.88 27.29,34.95 27.24,35.01 L27.24,35 Z M27.47,34.75 L27.7,35.21 L30.17,33.85 L30.17,33.89 C30.17,33.89 30.28,33.83 30.28,33.83 L29.66,33.02 L28.01,34.14 C27.95,34.22 27.86,34.32 27.66,34.53 C27.6,34.6 27.53,34.67 27.47,34.74 L27.47,34.75 Z M34.31,33.03 L34.38,33.08 C34.44,32.98 34.5,32.89 34.58,32.81 C34.45,32.67 34.31,32.48 34.17,32.23 L33.74,31.48 L33.71,31.66 L33.9,31.78 L33.77,32.3 L34.03,32.59 C34.19,32.77 34.27,32.91 34.32,33.03 L34.31,33.03 Z M33.41,31.92 C33.41,32 33.41,32.03 33.41,32.06 C33.41,32.01 33.41,31.97 33.41,31.92 Z M33.97,31.12 C33.97,31.12 33.89,31.21 33.85,31.27 C33.84,31.28 33.83,31.3 33.82,31.31 L34.5,30.88 C34.5,30.88 34.5,30.86 34.5,30.85 L33.96,31.13 L33.97,31.12 Z M35.04,27.44 L35.23,27.58 C35.33,27.46 35.46,27.31 35.61,27.12 C35.66,26.46 35.68,26.38 35.69,26.32 C35.73,26.15 35.8,26.01 35.98,25.65 L36.02,25.53 C36.04,25.41 36.06,25.27 36.07,25.21 C36.18,24.65 36.6,24.44 37.14,24.29 L37.11,24.23 C37.02,24.16 36.92,24.09 36.84,24.02 L35.75,24.02 L35.47,23.79 C35.24,23.6 35.12,23.46 35.03,23.28 L35.03,23.28 C35.03,23.28 34.94,23.08 34.86,22.88 C34.84,22.86 34.82,22.84 34.8,22.82 C34.74,22.79 34.66,22.76 34.59,22.71 L34.37,22.85 L33.79,22.31 C33.38,21.92 33.18,21.69 33.12,21.38 L32.7,24.51 C32.8,24.51 32.9,24.54 33,24.57 L33.33,24.68 L33.52,24.97 C33.52,24.97 33.56,25.03 33.58,25.06 C33.67,25.08 33.77,25.1 33.85,25.12 C34.04,25.16 34.17,25.2 34.2,25.21 C34.33,25.27 34.91,25.55 34.83,26.32 C34.93,26.55 35,26.75 35,26.97 C35,27.04 35.02,27.24 35.04,27.44 L35.04,27.44 Z M30.03,25.65 L30.46,26.49 C30.5,26.43 30.54,26.37 30.6,26.32 L30.04,25.66 L30.03,25.65 Z M38.3,24.74 L37.99,25.51 C38.39,25.65 38.79,25.51 38.99,25.29 L38.82,25.12 L38.52,25.2 L38.42,24.82 L38.31,24.74 L38.3,24.74 Z M26.07,23.59 C26.09,23.65 26.11,23.71 26.14,23.76 C26.12,23.73 26.1,23.66 26.07,23.59 Z M36.93,19.36 L37.1,19.43 C37.12,19.34 37.13,19.11 36.99,18.86 L36.92,19.36 L36.93,19.36 Z" id="Shape"></path>
                <path d="M26.54,3.86 L26.02,3.63 C25.47,3.38 25.42,2.94 25.33,2.07 L25.21,0.92 L26.37,0.97 C27.19,1.01 27.49,1.02 27.8,1.32 C27.96,1.49 28.32,2.15 28.32,2.53 C28.32,3.14 27.75,3.83 26.93,3.61 C26.92,3.61 26.9,3.61 26.89,3.62 L26.54,3.86 L26.54,3.86 Z" id="Path"></path>
                <path d="M34.2,8.96 L29.09,8.33 C28.4,8.24 28.37,8.24 28.26,8.2 L27.63,7.98 L27.59,7.31 C27.55,6.63 28.13,6.34 28.37,6.22 L28.84,5.99 L34.2,8.96 L34.2,8.96 Z" id="Path"></path>
                <path d="M25.34,10.95 L25.7,9.34 L23.97,8.5 L26.08,7.67 C26.3,7.42 26.62,7.31 27.02,7.2 L27.8,6.98 L28.18,7.69 C28.39,8.08 28.41,8.27 28.42,8.35 C28.45,8.58 28.4,8.8 28.29,8.99 C28.26,9.19 28.19,9.39 28.02,9.57 C27.87,9.72 27.79,9.76 27.22,10.04 L25.36,10.94 L25.34,10.95 Z" id="Shape"></path>
                <path d="M26.9,11.51 L25.78,10.91 L25.78,10.95 L24.42,10.43 C23.88,10.22 23.75,10.12 23.68,10.07 C23.55,9.97 23.39,9.82 23.13,9.27 L22.45,7.84 L25.09,7.84 L25.15,8.01 C25.37,8.06 25.62,8.2 25.85,8.51 L26.39,9.24 L26.14,9.46 L26.9,11.51 Z" id="Path"></path>
                <polygon id="Path" points="28.95 13.28 23.86 9.64 24.69 7.61 26.01 8.56"></polygon>
                <path d="M29.9,9.3 L26.7,7.79 L27.32,7.35 L25.87,5.53 L27.9,6.1 L27.9,3.71 L29.49,6.55 L30.35,7.29 L30.16,7.96 C30.11,8.1 30.03,8.25 29.9,8.38 L29.9,9.3 Z" id="Path"></path>
                <polygon id="Path" points="30.13 12.99 23.73 10.28 24.55 8.37 26.18 9.02"></polygon>
                <polygon id="Path" points="23.46 14.18 23.46 11.71 22.5 11.71 23.61 10.34 24.97 8.09 25.66 9.71 26.73 9.71 25.81 11.17 25.81 12.13 24.97 12.13"></polygon>
                <path d="M30.63,18.16 L26.14,14.75 C26.14,14.75 26,14.64 25.9,14.55 L25.63,14.69 L25.12,14 C24.99,13.94 24.89,13.89 24.79,13.83 C24.51,13.63 24.28,13.2 24.14,12.91 L22.59,14.23 L23.98,10.58 C23.98,10.58 24,10.53 24.01,10.5 L24.06,10.37 C24.11,10.24 24.15,10.17 24.19,10.12 L24.56,8.91 L25.49,9.32 C25.54,9.32 25.59,9.3 25.61,9.3 C25.77,9.26 26.43,9.17 26.81,9.98 L27,10.29 C27.1,10.39 27.2,10.52 27.32,10.7 C27.35,10.7 27.37,10.72 27.4,10.73 L27.55,10.52 L27.82,10.99 L27.82,10.99 C27.86,11.04 27.9,11.09 27.94,11.15 L31.39,9.02 L28.51,13.14 L28.8,13.49 L28.8,14.22 L28.89,14.7 L28.8,14.72 L28.8,15.36 L30.6,18.16 L30.63,18.16 Z" id="Shape"></path>
                <path d="M27.17,11.86 L26.46,11.55 C26.14,11.41 25.99,11.32 25.87,11.19 C25.55,10.87 25.42,10.29 25.87,9.73 L26.29,9.2 L26.94,9.39 C26.94,9.39 27.11,9.44 27.29,9.53 L27.72,9.73 L27.88,10.25 C28,10.73 27.76,11.1 27.65,11.24 L27.18,11.85 L27.17,11.86 Z M26.89,10.55 L27.43,10.98 C27.62,10.74 27.68,10.18 27.29,9.8 L27.16,9.93 L26.89,10.56 L26.89,10.55 Z M26.06,10.02 C25.92,10.21 25.87,10.47 25.93,10.72 L26.58,10.56 L26.61,10.47 L26.59,10.49 L26.62,10.44 L26.07,10.02 L26.06,10.02 Z" id="Shape"></path>
                <path d="M27.56,13.05 L27.77,12.01 L27.7,12.01 C27.7,12.01 27.61,12.01 27.61,12.01 C27.35,12.03 27.2,12.01 27.1,11.98 C26.93,11.94 26.59,11.8 26.4,11.38 L26.36,11.34 C26.24,11.22 26.05,11.01 25.96,10.59 C25.88,10.26 25.92,10.03 25.96,9.89 C26.03,9.57 26.22,9.3 26.39,9.12 L24.55,8.1 L27.17,7.9 L27.17,7.51 L27.81,7.46 L28.26,6.68 L28.29,7.42 C28.52,7.4 28.88,7.38 28.91,7.38 C29.12,7.38 29.3,7.43 29.65,7.6 C31.1766667,8.48666667 31.99,9.05666667 32.09,9.31 C32.35,9.96 31.86,10.44 31.51,10.8 L31.28,11.02 L31.28,11.52 L30.75,11.81 C30.52,11.93 30.31,11.95 30.12,11.92 C30.12,11.92 30.12,11.92 30.12,11.92 L30.17,12.54 L29.76,11.95 L29.64,11.95 C29.57,11.98 29.51,12.01 29.46,12.03 C29.27,12.12 28.96,12.21 28.6,12.08 C28.58,12.08 28.57,12.08 28.55,12.08 L27.58,13.05 L27.56,13.05 Z" id="Shape"></path>
                <path d="M27.17,13.33 L26.74,12.4 L26.74,12.4 C26.74,12.4 26.41,12.47 26.41,12.47 L26.17,11.48 C26.13,11.28 26.1,10.98 26.25,10.68 C26.27,10.63 26.57,10.1 27.23,10.12 C27.3,10.1 27.37,10.07 27.42,10.05 L27.46,10.15 C27.46,10.15 27.49,10.15 27.5,10.15 L27.5,10.21 C27.5,10.21 27.5,10.23 27.5,10.23 C27.62,10.24 27.74,10.28 27.86,10.34 C27.94,10.29 28.03,10.26 28.11,10.24 L28.13,10.16 C28.25,10.17 28.34,10.19 28.44,10.21 C28.58,10.21 28.71,10.24 28.84,10.28 L29,10.2 L29,10.32 C29,10.32 30.23,10.63 30.23,10.63 L29.6,11.76 C29.6,11.76 29.33,12.24 29.29,12.29 C29.2,12.41 29.1,12.5 29,12.56 C28.79,12.9 28.4,13.09 27.91,13.09 L27.64,13.09 L27.16,13.32 L27.17,13.33 Z" id="Path"></path>
                <path d="M29.62,14.1 L29,12.56 L28.8,12.43 L28.8,11.4 C28.8,10.67 29.45,10.43 29.77,10.32 L30.15,10.18 L30.52,10.35 C30.87,10.51 31.13,10.71 31.28,10.93 C31.48,11.23 31.59,11.71 31.59,11.71 C31.71,12.36 31.32,12.68 30.67,13.23 L29.61,14.11 L29.62,14.1 Z" id="Path"></path>
                <path d="M33.46,17.65 L29.65,15.91 L29.28,16.73 L28.82,15.95 L28.74,15.95 C28.74,15.95 28.42,15.77 28.42,15.77 C28.15,15.6 27.98,15.41 27.9,15.17 L27.83,15.13 L27.26,15.25 L27.22,14.78 L27.05,14.68 L27.05,14.68 C27.05,14.68 25.03,15.62 25.03,15.62 L27.23,12.69 C27.27,12.6 27.32,12.49 27.39,12.36 L27.5,12.03 L27.5,12.01 C27.5,11.72 27.6,11.35 28.03,11.11 C28.14,10.93 28.33,10.74 28.65,10.61 L30.24,9.94 L30.1,11.08 L31.63,9.28 L30.47,12.51 L32.83,11.56 L31.2,13.53 L31.85,13.72 L31.11,14.63 C31.11,14.72 31.11,14.84 31.09,14.97 L33.47,17.65 L33.46,17.65 Z" id="Path"></path>
                <path d="M29.91,14.56 C29.61,14.56 29.29,14.43 29.02,14.09 L28.65,13.63 L28.77,13.35 L28.43,12.88 L28.8,12.3 C28.85,12.22 28.93,12.12 29.05,12.04 C29.38,11.6 29.98,11.6 30.4,11.6 L32.43,11.6 L31.47,12.85 L31.36,13.22 C31.28,13.47 30.72,14.24 30.51,14.39 C30.34,14.5 30.13,14.57 29.92,14.57 L29.91,14.56 Z" id="Path"></path>
                <path d="M32.99,11.21 C32.59,11.21 32.28,10.91 31.83,10.45 L31.15,10.45 L31.38,10.01 C31.22,9.82 31.14,9.59 31.07,9.35 L31.07,9.33 C30.98,9.29 30.88,9.22 30.8,9.12 C30.63,8.95 30.5,8.73 30.45,8.5 C30.39,8.17 30.51,7.51 30.68,7.22 L31.3,6.16 L32.21,6.98 C32.21,6.98 32.49,7.23 32.56,7.31 C32.77,7.53 32.89,7.85 32.95,8.08 C32.97,8.1 32.99,8.12 33.01,8.14 C33.17,8.24 33.29,8.37 33.37,8.45 L33.43,8.51 C33.54,8.61 33.62,8.73 33.69,8.85 C33.88,9.11 34.01,9.53 34.01,10.19 L34.01,10.86 L33.39,11.12 C33.24,11.18 33.11,11.21 32.99,11.21 L32.99,11.21 Z" id="Path"></path>
                <path d="M32.71,10.3 L32.14,9.71 C32.14,9.71 31.82,9.38 31.74,9.3 L31.19,8.75 L31.6,8.08 C32.01,7.4 32.72,7.63 32.99,7.71 L33.03,7.71 C33.03,7.71 33.18,7.47 33.18,7.47 C33.51,7.63 33.6,7.68 33.67,7.74 C33.96,7.96 34.11,8.32 34.11,8.83 C34.11,9.41 33.67,9.69 33.41,9.86 L32.72,10.3 L32.71,10.3 Z M32.23,9.1 C32.23,9.1 32.29,9.18 32.33,9.22 L32.43,8.84 L32.37,8.84 C32.37,8.84 32.49,8.61 32.49,8.61 L32.45,8.59 L32.45,8.59 C32.45,8.59 32.45,8.59 32.45,8.59 L32.45,8.59 C32.45,8.59 32.53,8.51 32.53,8.51 L32.37,8.27 L32.16,8.1 C31.97,8.34 31.93,8.63 31.95,8.81 C31.97,8.88 31.99,8.94 32.02,8.99 L32.11,8.91 L32.11,8.91 C32.11,8.91 32.02,9.01 32.02,9.01 C32.08,9.13 32.15,9.19 32.15,9.19 L32.21,9.1 L32.23,9.1 Z M32.22,8.84 L32.21,8.84 C32.21,8.84 32.46,8.6 32.46,8.6 L32.22,8.84 Z" id="Shape"></path>
                <path d="M34.28,13.21 L33.02,11.26 L31.55,12.11 L32.82,7.99 L33.97,8.94 C34.12,9.06 34.38,9.33 34.43,9.73 C34.45,9.89 34.43,10.15 34.43,10.15 L34.27,13.2 L34.28,13.21 Z M32.45,10.01 C32.47,10.1 32.52,10.33 32.7,10.48 L33.05,10.05 L32.45,10.01 L32.45,10.01 Z M32.45,10.01 L33.05,10.05 L33.05,10.05 C33.05,10.05 32.45,10.01 32.45,10.01 Z" id="Shape"></path>
                <path d="M33.72,12.37 L31.96,11.78 C31.96,11.78 31.44,11.6 31.33,11.56 L30.88,11.37 L30.57,10.4 L30.79,10.09 C30.91,9.8 31.2,9.47 31.9,9.36 L32.41,9.28 L32.77,9.65 C33.14,10.03 33.19,10.32 33.2,10.41 C33.21,10.47 33.24,10.56 33.24,10.57 L33.71,12.37 L33.72,12.37 Z M32.14,10.87 L32.21,11.34 C32.29,11.31 32.49,11.17 32.62,10.93 C32.67,10.8 32.68,10.66 32.67,10.51 L32.37,10.56 L32.28,10.82 L32.14,10.86 L32.14,10.87 Z M32.43,10.39 L32.37,10.57 L32.67,10.52 C32.67,10.46 32.65,10.4 32.64,10.34 L32.43,10.4 L32.43,10.39 Z" id="Shape"></path>
                <path d="M30.07,13.51 L30.36,12.19 C30.32,12.13 30.28,12.07 30.24,12 C30.08,11.66 30.13,11.33 30.16,11.2 C30.16,11.16 30.18,11.12 30.19,11.09 L26.93,7.72 L31.25,9.85 L31.87,9.06 L32.78,10.67 L32.8,10.88 C32.8,10.88 32.8,10.9 32.8,10.93 C32.93,11.07 32.95,11.1 32.98,11.15 L33.07,11.29 L33.45,11.36 L33.06,12.1 C33.04,12.16 33.01,12.21 32.97,12.26 L32.47,13.15 L30.06,13.53 L30.07,13.51 Z" id="Path"></path>
                <path d="M34.77,14.62 L33.11,13.53 C32.9,13.61 32.71,13.65 32.5,13.63 C32.22,13.6 31.99,13.47 31.83,13.36 L32.3,12.62 C32.3,12.62 32.3,12.62 32.3,12.62 L31.82,13.35 C31.45,13.11 31.38,12.75 31.34,12.54 C31.34,12.53 31.34,12.52 31.34,12.52 L31.34,12.52 C31.21,12.17 31.31,11.85 31.43,11.62 C31.42,11.56 31.41,11.51 31.41,11.5 L31.18,10.31 L32.62,10.31 C33.23,10.31 33.49,10.77 33.68,11.11 C33.68,11.11 33.68,11.12 33.69,11.13 C33.79,11.18 33.88,11.23 33.94,11.27 C34.26,11.5 34.42,11.85 34.5,12.45 L34.78,14.62 L34.77,14.62 Z" id="Path"></path>
                <path d="M31.64,14.7 C31.54,14.7 31.43,14.7 31.32,14.68 L30.43,14.58 L30.43,12.67 L32.76,12.23 L32.82,13.38 C32.84,13.69 32.82,13.82 32.79,13.94 C32.67,14.44 32.29,14.7 31.64,14.7 L31.64,14.7 Z M31.54,12.73 C31.27,12.81 30.94,13.04 30.84,13.46 L30.89,13.46 C30.89,13.46 31.45,13.45 31.45,13.45 L31.53,12.74 L31.54,12.73 Z" id="Shape"></path>
                <path d="M31.72,15.72 L30.91,14.89 C30.7,14.67 30.3,14.27 30.47,13.67 C30.58,13.31 30.83,13.12 31.04,12.99 L31.79,12.52 L32.33,13.2 C32.33,13.2 32.52,13.44 32.55,13.49 C32.69,13.7 32.88,14.18 32.41,14.8 L31.71,15.73 L31.72,15.72 Z M30.82,13.58 C30.72,13.74 30.64,14.1 30.82,14.46 L31.37,14 L30.82,13.59 L30.82,13.58 Z" id="Shape"></path>
                <polygon id="Path" points="32.55 18.5 32.65 18.47 32.55 18.49 33.53 18.28 34.52 18.13 33.53 18.28 34.52 18.13 33.53 18.28 34.52 18.17 34.43 18.18 34.52 18.18"></polygon>
                <path d="M36.01,27.35 C35.74,27.35 35.51,27.23 35.31,27.1 C35.19,27.12 35.07,27.1 34.94,27.05 C34.5,26.89 34.35,26.58 34.19,26.24 L34.14,26.13 C34.1,26.05 34.06,25.96 34.04,25.88 C33.92,25.91 33.77,25.92 33.64,25.91 C33.17,25.91 32.72,25.57 32.54,25.08 C32.5,24.96 32.48,24.85 32.48,24.74 C32.34,24.62 32.14,24.41 31.87,23.98 L31.64,23.62 L31.72,23.15 C31.73,23.09 31.75,23.04 31.77,22.99 C31.73,22.87 31.7,22.76 31.69,22.72 C31.6,22.37 31.69,22.06 31.83,21.7 C31.5,21.72 30.93,21.62 30.68,20.69 C30.67,20.69 30.66,20.68 30.65,20.68 C30.24,20.54 29.69,19.92 29.57,19.61 C29.44,19.28 29.5,19.01 29.66,18.36 C29.6866667,18.2466667 29.92,17.7966667 30.36,17.01 C30.64,16.5 30.95,15.95 31.08,15.71 C31.08,15.63 31.1,15.55 31.12,15.47 C31.13,15.39 31.15,15.31 31.15,15.26 L31.15,14.85 L31.52,14.54 C31.77,14.33 32.07,14.28 32.34,14.3 L32.49,14.07 L33.16,14.18 C33.22,14.19 33.28,14.21 33.34,14.23 L34.01,13.76 L34.27,15.33 C34.31,15.59 34.32,15.79 34.31,15.95 C34.36,15.98 34.41,16.01 34.45,16.04 L34.59,16.14 C35.16,16.49 35.31,17.58 35.31,17.71 C35.31,18.07 35.15,18.57 34.4,18.9 C34.15,19.03 33.9,19.05 33.71,19.05 C33.89,19.28 33.98,19.52 34.03,19.65 C34.09,19.8 34.29,20.57 34.39,21.08 C34.45,21.08 34.5,21.1 34.56,21.11 L34.99,21.18 L35.23,21.54 C35.23,21.54 35.57,22.05 35.75,22.31 C35.84,22.36 35.95,22.42 36.03,22.46 L37.06,22.67 L37.1,23.45 C37.1,23.45 37.11,23.71 37.13,23.88 C37.19,24 37.25,24.11 37.29,24.24 C37.37,24.47 37.45,24.82 37.47,25 C37.49,25.19 37.46,25.38 37.41,25.63 C37.37,25.97 37.22,26.21 37.05,26.39 C37.05,26.52 37.02,26.66 36.94,26.81 L36.74,27.21 L36.3,27.33 C36.21,27.36 36.12,27.37 36.03,27.37 L36.01,27.35 Z M33.53,18.85 C33.53,18.85 33.58,18.9 33.6,18.92 L33.6,18.27 L33.57,18.27 C33.57,18.33 33.56,18.38 33.56,18.38 L33.53,18.85 Z M33.81,18.24 L34.3,18.71 C34.51,18.47 34.52,18.21 34.51,18.13 L33.82,18.24 L33.81,18.24 Z M33.48,18.29 L33.48,18.38 C33.48,18.38 33.53,18.31 33.54,18.28 L33.48,18.28 L33.48,18.29 Z" id="Shape"></path>
                <path d="M27.85,22.39 L27.19,22.39 L26.92,21.78 C26.64,21.13 27.1,20.65 27.35,20.38 L27.8,19.91 L28.41,20.13 C28.68,20.22 29.4,20.48 29.4,21.23 C29.4,21.59 29.17,22.23 28.3,22.3 C28.17,22.34 28.03,22.39 27.85,22.39 L27.85,22.39 Z M27.71,20.53 C27.54,20.69 27.41,20.93 27.41,21.23 C27.41,21.59 27.59,21.85 27.76,21.99 L28,21.31 L27.85,21.39 L27.85,21.39 C27.85,21.39 27.85,21.39 27.85,21.39 L27.85,21.34 L27.72,20.53 L27.71,20.53 Z M28.22,21.2 L28.78,21.73 C28.86,21.53 28.88,21.23 28.74,20.94 L28.22,21.2 L28.22,21.2 Z" id="Shape"></path>
                <path d="M37.13,25.21 C36.88,25.21 36.41,25.07 36.17,24.88 C35.78,24.58 35.65,24.01 35.73,23.6 L35.84,23.04 L36.41,22.81 C36.77,22.69 37.19,22.77 37.5,23.04 C37.52,23.06 37.78,23.31 37.83,23.37 C37.95,23.52 38.32,24.07 38.03,24.64 L37.76,25.2 L37.12,25.2 L37.13,25.21 Z M36.33,24.63 C36.56,24.76 36.83,24.78 37.08,24.69 L36.88,24.13 L36.32,24.63 L36.33,24.63 Z M36.26,24.59 L36.26,24.59 L36.88,24.11 L36.83,24.05 L36.8,24.09 L36.82,24.04 L36.25,23.75 C36.08,24.09 36.16,24.44 36.26,24.58 L36.26,24.59 Z M37.13,23.84 L37.7,23.98 C37.76,23.66 37.57,23.43 37.39,23.3 L37.16,23.61 L37.13,23.85 L37.13,23.84 Z" id="Shape"></path>
                <path d="M34.13,37.87 L32.96,34.27 L32.54,33.98 C32.35,33.85 32.13,33.66 32.03,33.34 C32,33.24 31.97,33.02 31.94,32.67 L31.84,32.64 L31.8,31.92 C31.8,31.92 31.79,31.68 31.8,31.49 C31.83,31.15 31.99,30.92 32.13,30.77 L32.13,30.42 L32.19,30.42 C32.19,30.42 32.19,30.4 32.19,30.4 C32.26,30.12 32.41,29.94 32.59,29.75 L33.41,28.68 L34.2,29.71 C34.2,29.71 34.26,29.73 34.28,29.73 L35.08,29.95 L35.01,30.77 C35.01,30.77 35,30.95 34.98,31.14 C35.01,31.2 35.04,31.26 35.06,31.32 C35.07,31.35 35.08,31.39 35.09,31.43 L35.73,31.6 L35.15,31.93 C35.23,32.15 35.23,32.37 35.19,32.57 L36.76,33.19 L34.38,34.49 L34.15,34.49 C34.15,34.49 34.13,34.5 34.12,34.5 L34.12,37.85 L34.13,37.87 Z" id="Shape"></path>
                <path d="M34.62,35.75 L33.31,35.26 L32.22,32.82 L34.14,33.22 C34.64,33.32 34.84,33.43 35,33.56 C35.37,33.88 35.56,34.51 35.08,35.15 L34.63,35.75 L34.62,35.75 Z M33.47,33.95 C33.32,34.15 33.26,34.72 33.69,35.08 L33.76,35 L33.91,34.28 L33.47,33.95 L33.47,33.95 Z" id="Shape"></path>
                <path d="M33.88,40.16 L33.51,39.86 C33.37,39.81 33.26,39.76 33.2,39.72 L33.19,39.72 C32.67,39.4 32.57,38.77 32.56,38.7 C32.53,38.5 32.56,38.32 32.62,38.01 C32.62,37.96 32.64,37.9 32.65,37.85 C32.6,37.71 32.58,37.63 32.57,37.57 C32.51,37.26 32.58,36.96 32.79,36.68 C32.81,36.47 32.83,36.13 32.83,36.05 C32.83,35.64 33.06,35.37 33.33,35.1 C33.35,34.95 33.37,34.8 33.37,34.76 L33.53,33.88 L34.42,33.94 C34.42,33.94 35.27,33.81 35.59,34.77 C35.65,34.93 35.66,35.07 35.66,35.19 C35.69,35.24 35.72,35.3 35.75,35.36 C35.89,35.62 35.99,35.95 35.84,36.36 C35.86,36.42 35.89,36.47 35.9,36.5 C36.33,36.64 36.62,37.01 36.72,37.34 C36.97,38.11 36.46,38.44 35.63,38.86 L35.51,39.09 C35.38,39.3 35.2,39.42 35.03,39.49 L35.03,39.54 L33.86,40.14 L33.88,40.16 Z M33.92,35.3 L33.98,35.36 L34.35,35.15 L33.92,35.3 Z" id="Shape"></path>
                <path d="M32.99,42.71 L32.04,42.34 C32.04,42.34 31.77,42.23 31.65,42.17 C31.42,42.03 31.32,41.9 30.98,41.38 C30.87,41.21 30.75,41.03 30.67,40.93 C30.48,40.75 30.36,40.52 30.33,40.26 C30.28,39.81 30.5,39.49 30.6,39.37 L30.96,38.93 L31.48,39.01 C31.73,38.99 32.06,39.04 32.31,39.3 L32.57,39.3 C32.57,39.3 32.9,39.78 32.9,39.78 L34.12,39.45 L32.99,42.71 L32.99,42.71 Z" id="Shape"></path>
                <path d="M31.28,42.91 C30.74,42.91 29.94,42.43 29.93,42.43 L29.49,42.13 L29.49,41.57 C29.48,40.84 30.32,40.19 30.33,40.19 L30.59,40.01 L31.15,40.01 C31.38,40.01 31.8,40.08 32.09,40.51 C32.24,40.59 32.36,40.69 32.44,40.77 L32.75,41.1 L32.71,41.55 C32.67,41.92 32.64,42.12 32.51,42.33 C32.42,42.47 32.2,42.81 31.38,42.9 C31.35,42.9 31.32,42.9 31.29,42.9 L31.28,42.91 Z M30.77,41.37 L30.9,41.37 C30.9,41.37 30.9,41.31 30.9,41.31 L30.83,41.26 C30.83,41.26 30.79,41.34 30.77,41.37 Z" id="Shape"></path>
                <path d="M30.86,44.4 C30.54,44.4 30.27,44.26 30.15,44.18 C29.91,44.04 29.79,43.84 29.45,43.25 L29.74,43.06 L29.74,43.06 C29.74,43.06 29.67,43.09 29.67,43.09 C29.67,43.09 29.67,43.09 29.67,43.08 L29.43,43.22 L29.17,42.78 L29.37,42.3 L29.39,42.25 L26.74,36.03 L30.57,40.99 L30.85,40.9 L31.18,41.04 C31.18,41.04 31.54,41.19 31.74,41.33 C31.96,41.48 32.45,41.91 32.22,42.76 C32.24,42.83 32.24,42.9 32.24,42.98 L32.24,43.54 L31.99,43.7 L31.99,43.84 C31.99,43.84 31.77,43.88 31.77,43.88 C31.76,43.9 31.74,43.92 31.72,43.95 L31.58,44.23 L31.15,44.36 C31.05,44.39 30.95,44.4 30.85,44.4 L30.86,44.4 Z" id="Path"></path>
                <path d="M30.99,47.12 L30.81,42.96 C30.8,42.65 30.81,42.53 30.84,42.42 C30.89,42.22 30.98,42.07 31.16,41.84 L33.98,38.22 L32.86,42.94 C32.86,43.01 32.82,43.12 32.72,43.34 L30.99,47.13 L30.99,47.12 Z" id="Shape"></path>
                <path d="M29.29,42.01 L27.48,40.59 L27.94,39.83 C27.94,39.83 27.97,39.78 27.99,39.74 L28.29,37.98 L29.73,39.34 C30.44,39.82 29.99,40.67 29.84,40.95 L29.28,42.01 L29.29,42.01 Z" id="Path"></path>
                <path d="M27.49,44.05 L27.27,42.59 C27.27,42.59 27.21,42.21 27.17,41.95 C27.12,41.89 27.06,41.82 27.01,41.76 C26.89,41.62 26.8,41.5 26.79,41.49 C26.71,41.36 26.63,41.24 26.63,40.91 L25.31,40.91 L26.77,39.72 C26.89,39.1 27.46,38.88 27.88,38.81 L33.57,35.06 L29.58,40.03 C29.58,40.03 29.56,40.06 29.53,40.1 C29.53,40.19 29.53,40.28 29.51,40.36 C29.78,40.83 29.88,41.55 29.72,41.92 L29.61,42.21 C29.53,42.44 29.43,42.68 29.42,42.71 C29.3,42.97 29.09,43.13 28.75,43.32 L27.48,44.06 L27.49,44.05 Z" id="Path"></path>
                <path d="M29.05,45.27 L27.26,43.01 C26.86,42.51 26.81,42.41 26.78,42.35 C26.72,42.24 26.68,42.11 26.66,41.98 C26.59,41.76 26.54,41.45 26.54,41.01 L26.54,37.71 L28.5,40.65 C28.92,41.27 28.95,41.51 28.97,41.63 C28.97,41.65 28.97,41.68 28.97,41.71 L29.01,41.75 L29.03,42.38 L29.03,45.26 L29.05,45.27 Z" id="Shape"></path>
                <path d="M10.47,59.66 L10.57,58.38 C10.57,58.38 10.57,58.35 10.57,58.3 C10.45,58.17 10.35,58.04 10.28,57.87 L10.28,57.87 C10.2,57.66 10.18,57.45 10.21,57.25 C10.21,57.15 10.21,57.03 10.21,56.85 C10.21,56.64 10.29,56.4 10.38,56.2 L10.5,54.29 L11.18,55.07 L11.37,54.84 L12.16,55.78 C12.3,55.94 12.44,56.16 12.53,56.41 C12.94,56.73 12.92,57.28 12.88,57.73 L12.93,57.85 C13.14,58.4 12.89,59.01 12.34,59.29 L12.05,59.39 L10.47,59.65 L10.47,59.66 Z" id="Path"></path>
                <path d="M20.66,65.57 C20.66,65.57 20.57,65.57 20.52,65.57 C20.35,65.55 19.98,65.45 19.79,65.36 C19.48,65.23 18.78,64.65 18.62,64.13 C18.54,63.89 18.53,63.56 18.58,63.16 L18.79,61.59 L20.11,62.45 C20.11,62.45 20.48,62.69 20.74,62.83 C21.11,63.03 21.31,63.33 21.42,63.53 C21.66,63.72 21.75,63.96 21.79,64.11 L21.91,64.65 L21.65,64.92 C21.4,65.39 21,65.57 20.66,65.57 L20.66,65.57 Z" id="Shape"></path>
                <path d="M27.56,67.8 C26.85,67.8 26.64,67.12 26.42,66.47 L25.67,64.16 L27.83,65.27 C28.4,65.57 28.56,65.96 28.6,66.24 L28.6,66.24 C28.61,66.34 28.61,66.61 28.6,66.76 L28.58,67.59 L27.75,67.78 C27.68,67.79 27.61,67.8 27.55,67.8 L27.56,67.8 Z M26.71,66.79 C26.78,66.93 26.88,67.02 26.92,67.05 L27.05,66.79 L26.71,66.79 Z" id="Shape"></path>
                <polygon id="Path" points="28.49 72.23 27.2 67.78 30.26 68.45"></polygon>
                <path d="M34.38,78.71 C34.26,78.71 34.14,78.7 33.69,78.56 L29.7,77.35 L34.42,76.5 L34.63,76.55 C35.05,76.66 35.34,76.88 35.48,77.21 L35.69,77.71 L35.39,78.18 C35.14,78.56 34.69,78.69 34.38,78.69 L34.38,78.71 Z M33.95,77.89 L33.65,78.02 C33.8,78.35 34.07,78.48 34.14,78.5 L34.14,78.5 C34.14,78.5 34.03,77.86 34.03,77.86 L33.95,77.89 L33.95,77.89 Z M34.25,76.72 C33.97,76.77 33.8,76.99 33.73,77.09 L34.07,77.31 L34.25,76.72 Z" id="Shape"></path>
                <path d="M36.02,79.16 C35.7,79.16 35.33,79.08 35.07,78.75 C35.22,78.94 35.38,79.01 35.39,79.01 L35.74,77.04 L43.59,78.26 L36.44,79.14 C36.32,79.16 36.17,79.17 36.01,79.17 L36.02,79.16 Z M36.52,77.38 C36.52,77.38 36.61,77.47 36.65,77.52 C36.61,77.47 36.57,77.42 36.52,77.38 Z" id="Shape"></path>
            </g>
        </g>
    </g>
</svg>