<?xml version="1.0" encoding="UTF-8"?>
<svg width="120px" height="79px" viewBox="0 0 120 79" version="1.1" xmlns="http://www.w3.org/2000/svg" xmlns:xlink="http://www.w3.org/1999/xlink">
    <title>B8CA730F-C947-47AB-B30D-99CB57B88719</title>
    <g id="OnBoarding" stroke="none" stroke-width="1" fill="none" fill-rule="evenodd">
        <g id="assets---Other-Images" transform="translate(-136, -4424)" fill="#4CA7DA" fill-rule="nonzero" stroke="#FFFFFF" stroke-width="1.5">
            <g id="washington-filled" transform="translate(138.7788, 4425.3108)">
                <path d="M0.1,17.5598109 C0.1,17.5598109 0.37,18.0898109 0.35,18.1398109 C0.33,18.1898109 0.29,18.3698109 0.32,18.4198109 C0.35,18.4698109 0.59,18.5498109 0.6,18.7598109 C0.61,18.9698109 0.67,19.0098109 0.66,19.1098109 C0.65,19.2098109 0.52,19.4598109 0.53,19.5598109 C0.54,19.6498109 0.68,20.0498109 0.69,20.2998109 C0.7,20.5498109 0.68,21.1498109 0.69,21.2098109 C0.7,21.2698109 0.87,21.5998109 0.85,21.6798109 C0.83,21.7498109 0.75,21.9898109 0.75,21.9898109 C0.75,21.9898109 0.91,21.9998109 0.92,22.1098109 C0.92,22.2198109 0.94,22.4298109 0.94,22.4298109 C0.94,22.4298109 1.18,22.5198109 1.19,22.6898109 C1.2,22.8598109 1.15,23.3198109 1.16,23.3498109 C1.17,23.3798109 1.52,23.7998109 1.54,23.8598109 C1.56,23.9198109 1.57,24.0998109 1.57,24.0998109 C1.57,24.0998109 1.82,23.8998109 1.87,23.9398109 C1.92,23.9798109 2.13,24.1798109 2.13,24.1798109 C2.13,24.1798109 2.29,24.1298109 2.29,24.2098109 C2.29,24.2898109 2.37,24.7598109 2.37,24.7598109 C2.37,24.7598109 2.59,24.7998109 2.59,24.8298109 L2.59,24.9598109 C2.59,24.9598109 2.76,24.9398109 2.79,24.9998109 C2.82,25.0598109 2.93,25.2398109 2.97,25.2598109 C3.01,25.2798109 3.19,25.2498109 3.21,25.2998109 C3.23,25.3498109 3.43,26.1998109 3.43,26.1998109 C3.43,26.1998109 3.29,26.4198109 3.33,26.4398109 C3.37,26.4598109 3.63,26.4098109 3.72,26.5098109 C3.81,26.6098109 4.18,27.1398109 4.19,27.2398109 C4.19,27.3298109 4.95,30.9598109 4.95,31.1298109 C4.95,31.2998109 5.1,32.4498109 5.11,32.6598109 C5.12,32.8798109 5.1,34.5098109 5.12,34.5498109 C5.14,34.5798109 5.23,34.6598109 5.24,34.7198109 C5.24,34.7698109 5.23,35.1598109 5.23,35.2898109 C5.23,35.4198109 5.32,35.6098109 5.35,35.6298109 C5.38,35.6498109 6.01,35.8998109 6.01,35.8998109 L6.01,35.9998109 L5.62,35.8998109 C5.62,35.8998109 5.85,36.6298109 5.86,36.6898109 C5.87,36.7498109 5.99,36.8798109 5.99,36.8798109 C5.99,36.8798109 6.14,36.8198109 6.17,36.8198109 C6.2,36.8198109 6.34,36.9798109 6.39,37.0498109 C6.44,37.1198109 6.97,39.3998109 7.06,40.0298109 C7.14,40.6598109 7.31,42.3798109 7.27,42.8098109 C7.23,43.2298109 7.18,44.4998109 7.17,44.6898109 C7.16,44.8798109 7.09,45.1798109 7.12,45.1598109 C7.15,45.1398109 7.4,45.0598109 7.39,45.0098109 C7.38,44.9698109 7.28,44.8598109 7.28,44.8298109 C7.28,44.7998109 7.29,44.7298109 7.37,44.7098109 C7.45,44.6898109 7.76,44.6098109 7.76,44.6098109 C7.76,44.6098109 7.74,43.6398109 7.71,43.5498109 C7.68,43.4698109 7.47,43.0598109 7.53,42.9998109 C7.59,42.9398109 7.79,42.6698109 7.79,42.6698109 C7.79,42.6698109 8,42.4998109 8.18,42.5798109 C8.36,42.6498109 8.73,42.6798109 8.83,42.7098109 C8.93,42.7398109 9.33,42.9598109 9.33,42.9898109 C9.33,43.0198109 9.4,43.3898109 9.4,43.3898109 C9.4,43.3898109 9.57,43.4698109 9.57,43.4998109 C9.57,43.5298109 9.36,43.7498109 9.38,43.7798109 C9.4,43.8098109 9.69,44.0498109 9.69,44.0498109 C9.69,44.0498109 10.34,44.0598109 10.43,44.0798109 C10.51,44.0998109 10.95,44.1098109 10.95,44.1098109 C10.95,44.1098109 10.37,44.2998109 10.46,44.3298109 C10.55,44.3598109 11.1,44.2498109 11.14,44.2598109 C11.18,44.2698109 11.35,44.3798109 11.35,44.3798109 L11.87,44.3998109 C11.87,44.3998109 12.01,44.5698109 12.04,44.5498109 C12.07,44.5298109 12.53,44.4198109 12.53,44.4198109 C12.53,44.4198109 12.36,44.6198109 12.32,44.6498109 C12.28,44.6798109 11.78,44.7598109 11.78,44.7598109 L11.57,44.9498109 C11.57,44.9498109 10.35,45.3498109 10.27,45.3598109 C10.19,45.3698109 9.8,45.3198109 9.8,45.3198109 L9.66,45.7298109 L9.85,45.7698109 L9.87,45.9798109 C9.87,45.9798109 9.77,45.8098109 9.73,45.7998109 C9.69,45.7898109 9.6,45.7898109 9.6,45.7898109 C9.6,45.7898109 9.56,45.7098109 9.49,45.7098109 C9.42,45.7098109 9.02,45.8098109 9.01,45.8398109 C9.01,45.8698109 8.78,46.3598109 8.77,46.3898109 C8.76,46.4198109 8.62,46.5698109 8.62,46.5698109 L8.78,46.6198109 L9.1,46.3898109 L9.4,46.4598109 L9.08,46.4798109 C9.08,46.4798109 8.99,46.5898109 9,46.6098109 C9,46.6298109 9.41,46.9098109 9.39,47.0098109 C9.37,47.1098109 9.22,47.3198109 9.22,47.3198109 C9.22,47.3198109 8.97,46.7398109 8.94,46.7298109 C8.91,46.7198109 8.77,46.6798109 8.77,46.7198109 C8.77,46.7598109 8.48,47.0898109 8.48,47.0898109 L8.43,46.8398109 L8.59,46.8198109 L8.62,46.7098109 L8.5,46.6698109 L8.46,46.5398109 C8.46,46.5398109 8.39,46.6498109 8.32,46.5598109 C8.25,46.4698109 8.17,46.1498109 8.14,46.1398109 C8.11,46.1298109 8.17,46.1098109 8.19,46.0798109 C8.21,46.0498109 8.24,45.6998109 8.24,45.6998109 C8.24,45.6998109 8,45.6598109 7.99,45.6198109 C7.98,45.5798109 8,45.4498109 8,45.4498109 C8,45.4498109 7.94,45.4098109 7.91,45.4398109 C7.88,45.4698109 7.83,45.6698109 7.78,45.6598109 L7.73,45.6598109 C7.73,45.6598109 7.5,45.5598109 7.52,45.6198109 C7.54,45.6798109 8.05,47.1598109 8.03,47.3398109 C8.01,47.5198109 8.03,49.5098109 8.05,49.5398109 C8.06,49.5698109 8.82,49.8798109 8.82,49.8798109 L8.91,49.6998109 L8.75,49.6298109 L9.11,49.6298109 C9.11,49.6298109 9.45,49.9698109 9.45,49.9698109 L9.9,50.1798109 L9.97,50.0798109 C9.97,50.0798109 9.59,49.8998109 9.62,49.8998109 C9.65,49.8998109 9.85,49.8898109 9.85,49.8898109 C9.85,49.8898109 9.59,49.6498109 9.65,49.6598109 C9.71,49.6698109 9.83,49.7398109 9.83,49.6898109 C9.83,49.6398109 9.77,49.3498109 9.83,49.3898109 C9.89,49.4298109 10.38,49.6998109 10.38,49.6998109 C10.38,49.6998109 10.74,49.7498109 10.74,49.6798109 C10.74,49.6098109 10.74,49.4198109 10.77,49.3598109 C10.8,49.2998109 11.11,49.1698109 11.11,49.1998109 C11.11,49.2298109 11.12,49.4698109 11.12,49.4698109 L11.23,49.4398109 C11.23,49.4398109 11.27,49.5998109 11.34,49.6398109 C11.41,49.6798109 11.9,49.9098109 11.9,49.9098109 C11.9,49.9098109 11.7,49.9998109 11.75,50.0298109 C11.8,50.0598109 11.99,50.1898109 11.96,50.1798109 C11.93,50.1698109 11.89,50.1798109 11.89,50.1798109 L12.07,50.2498109 C12.07,50.2498109 11.98,50.2798109 12.03,50.3598109 C12.08,50.4398109 12.18,50.5998109 12.2,50.6598109 C12.22,50.7198109 12.29,50.9598109 12.32,50.9598109 C12.35,50.9598109 12.69,50.7798109 12.69,50.7798109 L12.91,50.8398109 L12.27,51.1098109 C12.27,51.1098109 12.15,50.5498109 11.96,50.4798109 C11.77,50.4098109 11.88,50.1398109 11.67,50.2398109 C11.46,50.3398109 10.68,50.6398109 10.63,50.7498109 C10.58,50.8498109 10.47,50.8698109 10.5,51.0198109 C10.53,51.1698109 10.57,51.3398109 10.56,51.3698109 C10.56,51.3998109 10.27,51.4898109 10.27,51.5298109 C10.27,51.5698109 10.33,51.6898109 10.36,51.7098109 C10.39,51.7298109 10.65,51.8298109 10.65,51.8298109 C10.65,51.8298109 10.34,51.8498109 10.37,51.8698109 L10.4,51.8898109 C10.4,51.8898109 10.67,52.0698109 10.7,52.1098109 C10.73,52.1498109 10.74,52.3598109 10.77,52.3798109 C10.8,52.3998109 10.99,52.3998109 10.99,52.4298109 C10.99,52.4598109 10.91,52.6098109 10.91,52.6098109 L10.71,52.6098109 C10.71,52.6098109 10.72,52.2898109 10.62,52.2198109 C10.52,52.1498109 10.3,52.1498109 10.26,52.0598109 C10.22,51.9798109 9.92,51.4898109 9.94,51.5598109 C9.96,51.6298109 10,52.2898109 10.09,52.3998109 C10.18,52.5098109 10.39,52.6198109 10.42,52.7298109 C10.45,52.8398109 10.45,53.0898109 10.52,53.1898109 C10.59,53.2798109 10.89,53.5798109 10.89,53.6398109 C10.89,53.6998109 10.83,54.1198109 10.84,54.1498109 C10.85,54.1798109 10.97,54.3098109 10.95,54.3598109 C10.93,54.4098109 10.74,54.4598109 10.74,54.4598109 L10.78,54.6098109 C10.78,54.6098109 10.61,54.2598109 10.56,54.3198109 C10.51,54.3798109 10.43,54.4398109 10.41,54.5398109 C10.39,54.6298109 10.41,54.7698109 10.38,54.7898109 C10.35,54.8098109 10.08,54.8398109 10.08,54.9198109 C10.08,54.9998109 10.14,55.3298109 10.16,55.3798109 C10.18,55.4198109 10.35,55.4798109 10.45,55.5898109 C10.55,55.6898109 10.7,56.1098109 10.7,56.1098109 C10.7,56.1098109 11.35,56.3998109 11.4,56.4598109 C11.44,56.5198109 11.61,56.9798109 11.61,56.9798109 L11.57,57.2098109 C11.57,57.2098109 11.43,56.5998109 11.36,56.5798109 C11.29,56.5598109 11.1,56.3798109 10.94,56.3398109 C10.78,56.2998109 10.32,56.1798109 10.32,56.1498109 C10.32,56.1198109 10.34,55.7098109 10.34,55.7098109 C10.34,55.7098109 10.18,55.5298109 10.17,55.6198109 C10.17,55.6998109 10.21,56.0298109 10.21,56.1298109 C10.21,56.2298109 10.31,56.3598109 10.32,56.3898109 C10.32,56.4198109 9.96,56.7798109 9.95,56.8698109 C9.94,56.9498109 9.93,57.5198109 9.93,57.5198109 C9.93,57.5198109 9.68,57.3098109 9.64,57.3098109 C9.6,57.3098109 9.2,57.4098109 9.2,57.4098109 C9.2,57.4098109 8.95,57.2398109 8.94,57.2098109 C8.93,57.1798109 8.8,54.6698109 8.8,54.6398109 C8.8,54.6098109 8.98,54.3798109 8.98,54.3098109 C8.98,54.2398109 8.99,52.9198109 8.99,52.9198109 L8.62,51.6998109 L8.7,51.5098109 L8.75,51.8098109 C8.75,51.8098109 8.97,51.7598109 8.93,51.6798109 C8.89,51.5998109 8.75,51.4298109 8.75,51.4298109 C8.75,51.4298109 8.54,51.3398109 8.47,51.4498109 C8.4,51.5598109 8.37,51.8298109 8.37,51.9798109 C8.37,52.1298109 8.41,55.8598109 8.4,56.0198109 C8.39,56.1898109 8.38,57.5698109 8.34,57.8398109 C8.3,58.1098109 8.24,58.7998109 8.23,58.8498109 C8.22,58.8998109 7.98,59.0398109 7.98,59.0398109 C7.98,59.0398109 8.13,59.0698109 8.1,59.1498109 C8.07,59.2298109 7.81,59.5298109 7.81,59.5598109 C7.81,59.5898109 7.88,59.7798109 7.88,59.7798109 L8.28,59.4898109 L8.52,59.7798109 C8.52,59.7798109 8.6,59.5598109 8.59,59.5298109 C8.58,59.4998109 8.38,59.3198109 8.38,59.3198109 C8.38,59.3198109 8.33,59.0698109 8.39,59.0298109 L8.45,58.9898109 C8.45,58.9898109 8.8,58.7498109 8.85,58.7498109 L8.9,58.7498109 C8.9,58.7498109 9.55,58.9598109 9.57,59.0498109 C9.58,59.1398109 9.55,59.2898109 9.59,59.3198109 C9.63,59.3498109 9.8,59.5998109 9.96,59.8198109 C10.12,60.0398109 10.17,60.1898109 10.37,60.1998109 C10.57,60.2098109 10.82,60.4198109 10.94,60.3898109 C11.06,60.3598109 11.46,59.9998109 11.46,59.9998109 C11.46,59.9998109 11.46,59.8298109 11.51,59.8198109 C11.56,59.8098109 11.77,59.8298109 11.8,59.8198109 C11.83,59.8098109 12,59.4798109 12.03,59.4998109 C12.06,59.5198109 12.37,59.7298109 12.46,59.7498109 C12.55,59.7698109 12.54,59.8298109 12.66,59.7498109 C12.78,59.6698109 12.85,59.3498109 12.88,59.3698109 C12.91,59.3898109 13.11,59.5198109 13.14,59.4598109 C13.17,59.4098109 13.17,59.2998109 13.22,59.2698109 C13.27,59.2398109 13.27,59.2298109 13.34,59.1798109 C13.41,59.1298109 13.38,58.9698109 13.41,58.9898109 C13.44,59.0098109 13.53,59.1598109 13.58,59.1398109 C13.63,59.1198109 13.83,59.0098109 13.83,59.0398109 C13.83,59.0698109 13.65,59.0998109 13.78,59.3098109 C13.91,59.5198109 13.91,59.5298109 13.91,59.6098109 C13.91,59.6898109 13.89,59.7998109 13.91,59.8598109 C13.94,59.9198109 14.04,59.9798109 14.1,60.0198109 C14.16,60.0498109 15.27,60.2298109 15.3,60.2298109 C15.33,60.2298109 16.42,59.9798109 16.52,59.9698109 C16.62,59.9598109 17.01,60.0198109 17.15,60.0798109 C17.29,60.1398109 17.6,60.5898109 17.64,60.6998109 C17.68,60.8098109 17.72,61.0598109 17.78,61.2098109 C17.84,61.3498109 19,62.4098109 19.06,62.4498109 C19.12,62.4898109 19.76,62.6998109 19.86,62.6798109 C19.96,62.6598109 20.49,62.2898109 20.6,62.2398109 C20.7,62.1998109 21.24,61.9398109 21.37,61.9198109 C21.49,61.8998109 22.1,61.8998109 22.17,61.9398109 C22.24,61.9798109 23.26,62.4998109 23.28,62.5298109 C23.3,62.5598109 23.44,62.9498109 23.5,62.9998109 C23.56,63.0398109 23.77,63.0398109 23.87,63.0998109 C23.97,63.1598109 24.61,63.8898109 24.71,63.9398109 C24.81,63.9898109 25.01,64.0298109 25.05,64.0298109 C25.09,64.0298109 25.46,64.1098109 25.52,64.1598109 C25.58,64.2098109 25.82,64.3898109 25.83,64.5398109 C25.84,64.6998109 25.9,64.8798109 25.87,64.9798109 C25.84,65.0698109 25.79,64.9798109 25.75,65.2398109 C25.71,65.4998109 26.18,66.5098109 26.37,66.7298109 C26.56,66.9498109 27.1,67.2898109 27.02,67.3798109 C26.95,67.4698109 26.82,67.7298109 26.8,67.8398109 C26.78,67.9398109 26.72,68.1398109 26.73,68.2598109 C26.74,68.3798109 27.03,69.0198109 27.05,69.0798109 C27.07,69.1398109 26.89,70.2998109 26.91,70.4398109 C26.93,70.5698109 27.27,71.3098109 27.28,71.3598109 C27.29,71.4098109 27.35,71.9298109 27.32,72.2598109 C27.29,72.5898109 27.12,73.1398109 27.12,73.1898109 C27.12,73.2398109 27.16,73.4898109 27.25,73.6498109 C27.34,73.8098109 27.36,73.7998109 27.45,73.9398109 C27.54,74.0898109 27.79,74.1498109 27.94,74.2098109 C28.09,74.2698109 28.46,74.6998109 28.68,74.7898109 C28.89,74.8798109 29,74.9198109 29.05,74.9098109 C29.1,74.8998109 29.26,74.7898109 29.39,74.8398109 C29.52,74.8898109 32.01,75.7298109 32.01,75.7298109 L32.81,75.5598109 C32.81,75.5598109 32.65,75.7098109 32.71,75.7298109 C32.77,75.7498109 33.22,75.7398109 33.33,75.7898109 C33.44,75.8398109 33.64,76.0998109 33.72,76.0998109 C33.8,76.0998109 34.46,76.1798109 34.54,76.1798109 C34.62,76.1798109 35.21,76.1698109 35.33,76.1198109 C35.44,76.0698109 35.97,75.8598109 36.02,75.8298109 C36.06,75.7998109 36.37,75.5898109 36.47,75.5498109 C36.57,75.5098109 37.4,75.2998109 37.63,75.2798109 C37.86,75.2598109 38.07,75.0798109 38.18,75.0298109 C38.29,74.9798109 38.36,74.7898109 38.42,74.7698109 C38.48,74.7498109 39,74.7098109 39.06,74.6898109 C39.12,74.6698109 39.32,74.3898109 39.32,74.3898109 C39.32,74.3898109 39.48,74.4098109 39.65,74.3798109 C39.82,74.3498109 40.04,74.1798109 40.04,74.1798109 C40.04,74.1798109 40.12,73.7198109 40.18,73.6898109 C40.24,73.6598109 40.52,73.4698109 40.64,73.4198109 C40.76,73.3698109 41.28,73.0698109 41.41,73.0698109 C41.54,73.0698109 42.92,73.3698109 43.04,73.3698109 C43.16,73.3698109 43.6,73.1198109 43.68,73.1198109 C43.76,73.1198109 44.1,73.0998109 44.21,73.0898109 C44.32,73.0798109 45.53,72.7598109 45.65,72.7298109 C45.77,72.6998109 46.11,72.7998109 46.23,72.8398109 C46.35,72.8798109 47.3,73.5098109 47.45,73.4698109 C47.6,73.4298109 48.2,73.2198109 48.25,73.2198109 C48.3,73.2198109 48.98,73.2398109 49.11,73.3098109 C49.24,73.3798109 49.47,73.6298109 49.62,73.7198109 C49.77,73.8098109 50.36,73.8498109 50.41,73.9298109 C50.46,73.9998109 50.69,74.0798109 50.74,74.3298109 C50.79,74.5898109 50.86,75.2498109 50.93,75.3098109 C51,75.3698109 51.07,75.4398109 51.17,75.4198109 C51.27,75.3998109 51.73,75.3498109 51.84,75.2198109 C51.95,75.0998109 52.23,74.7198109 52.31,74.6298109 C52.39,74.5398109 52.62,74.3298109 52.77,74.2998109 C52.92,74.2698109 53.55,74.2898109 53.62,74.2898109 C53.69,74.2898109 53.97,74.5098109 54.03,74.4998109 C54.09,74.4898109 54.53,74.1898109 54.6,74.2598109 C54.67,74.3298109 54.98,74.5998109 55.06,74.5998109 C55.14,74.5998109 55.22,74.5898109 55.3,74.5398109 C55.38,74.4898109 55.81,74.0398109 55.97,73.9698109 C56.12,73.8998109 58.26,73.1198109 58.42,73.0198109 C58.58,72.9198109 58.91,72.4998109 59.04,72.4698109 C59.17,72.4398109 59.63,72.3098109 59.76,72.3398109 C59.88,72.3598109 60.18,72.3598109 60.27,72.4298109 C60.36,72.4998109 60.86,73.0498109 60.93,73.1098109 C61,73.1698109 61.48,73.4998109 61.55,73.4998109 C61.62,73.4998109 63.74,73.1798109 63.78,73.1798109 C63.82,73.1798109 64.4,72.9298109 64.51,72.9298109 C64.62,72.9298109 65.47,72.8498109 65.53,72.8498109 C65.59,72.8498109 65.76,72.7998109 65.79,72.7498109 C65.82,72.6998109 66.24,72.1098109 66.25,72.0798109 C66.26,72.0498109 66.94,71.7298109 66.98,71.6998109 C67.02,71.6698109 68.01,71.3598109 68.11,71.3398109 C68.21,71.3198109 69.25,70.5998109 69.25,70.5998109 C69.25,70.5998109 70.12,70.6698109 70.22,70.5998109 C70.32,70.5298109 71.27,70.1898109 71.37,70.1498109 C71.47,70.1198109 73.53,69.9098109 73.72,69.8598109 C73.91,69.8098109 74.65,68.6598109 74.68,68.6198109 C74.71,68.5798109 75.13,68.4098109 75.23,68.4298109 C75.33,68.4498109 75.82,68.7698109 75.94,68.7998109 C76.05,68.8298109 76.2,68.8598109 76.3,68.8298109 C76.4,68.7998109 77.05,68.5298109 77.13,68.5298109 C77.21,68.5298109 78.21,68.3998109 78.33,68.3998109 C78.45,68.3998109 79.27,68.0898109 79.35,68.0898109 C79.43,68.0898109 79.98,68.0798109 80.11,68.0898109 C80.23,68.0998109 81.05,68.3298109 81.08,68.3398109 C81.11,68.3498109 82.16,68.0698109 82.23,68.0398109 C82.3,68.0098109 83.4,67.4398109 83.44,67.3798109 C83.48,67.3198109 83.95,66.6398109 84.07,66.5898109 C84.19,66.5398109 101.77,66.2998109 101.77,66.2998109 L115.16,65.9398109 C115.16,65.9398109 114.62,64.4998109 114.6,64.4598109 C114.58,64.4198109 114.31,64.2698109 114.28,64.2398109 C114.25,64.2098109 114.14,64.1398109 114.11,64.0598109 C114.08,63.9898109 114.06,63.9098109 114.08,63.8698109 C114.1,63.8298109 114.42,63.6498109 114.45,63.5698109 C114.48,63.4898109 114.9,62.2598109 114.87,62.1598109 C114.84,62.0598109 114.21,61.4698109 114.21,61.3898109 C114.21,61.3098109 114.28,60.6098109 114.28,60.6098109 C114.28,60.6098109 114.14,60.2398109 114.11,60.1998109 C114.08,60.1598109 113.8,59.8298109 113.8,59.7998109 C113.8,59.7698109 113.85,59.4398109 113.84,59.4098109 C113.83,59.3798109 113.39,59.0198109 113.37,58.9698109 C113.35,58.9298109 113.3,58.6098109 113.24,58.5398109 C113.18,58.4798109 112.9,58.3198109 112.86,58.2798109 C112.82,58.2398109 112.66,58.1098109 112.67,58.0398109 C112.68,57.9698109 113.06,56.8798109 113.06,56.8298109 C113.06,56.7798109 112.98,56.5198109 112.97,56.4698109 C112.97,56.4198109 112.32,37.8898109 112.32,37.8898109 L111.59,15.6098109 L111.24,0.0998109277 L95.13,0.539810928 L71.86,0.819810928 L46.56,0.729810928 L29.24,0.329810928 C29.24,0.329810928 29.27,0.559810928 29.3,0.659810928 C29.33,0.759810928 29.53,0.849810928 29.53,0.889810928 C29.53,0.929810928 29.54,1.09981093 29.52,1.13981093 C29.5,1.17981093 29.33,1.24981093 29.33,1.24981093 L28.79,0.989810928 L28.73,0.799810928 L28.97,0.619810928 L28.94,0.439810928 C28.94,0.439810928 28.31,1.19981093 28.3,1.23981093 C28.3,1.27981093 28.19,1.46981093 28.23,1.51981093 C28.27,1.56981093 28.57,1.80981093 28.6,1.80981093 C28.63,1.80981093 28.98,1.53981093 29.01,1.57981093 C29.04,1.61981093 29.22,1.66981093 29.23,1.80981093 C29.23,1.93981093 29.31,2.19981093 29.28,2.22981093 C29.25,2.25981093 28.89,2.57981093 28.82,2.58981093 C28.75,2.59981093 28.55,2.58981093 28.59,2.63981093 C28.63,2.68981093 29.69,3.66981093 29.69,3.70981093 C29.69,3.74981093 29.59,5.13981093 29.75,5.07981093 C29.91,5.01981093 29.9,5.06981093 29.91,5.01981093 C29.92,4.96981093 29.85,4.71981093 29.85,4.71981093 C29.85,4.71981093 30.17,4.68981093 30.19,4.71981093 C30.21,4.74981093 30.35,5.01981093 30.35,5.01981093 L30.65,5.14981093 L30.22,6.24981093 L30.4,6.24981093 C30.4,6.24981093 30.53,6.59981093 30.56,6.59981093 C30.59,6.59981093 31.33,5.38981093 31.33,5.38981093 C31.33,5.38981093 31.47,5.40981093 31.54,5.39981093 C31.61,5.38981093 31.77,5.20981093 31.77,5.20981093 C31.77,5.20981093 32.11,5.25981093 32.21,5.32981093 C32.31,5.39981093 32.59,5.73981093 32.59,5.73981093 C32.59,5.73981093 32.86,5.75981093 32.88,5.82981093 C32.9,5.89981093 32.92,6.05981093 32.92,6.05981093 L32.45,6.71981093 L32.58,7.23981093 L32.65,7.03981093 C32.65,7.03981093 32.75,7.06981093 32.75,7.12981093 C32.75,7.18981093 32.8,7.62981093 32.8,7.62981093 L32.68,7.81981093 L32.54,7.68981093 C32.54,7.68981093 32.49,7.73981093 32.5,7.77981093 C32.51,7.81981093 33.05,8.50981093 33.05,8.50981093 C33.05,8.50981093 33.38,8.73981093 33.44,8.79981093 C33.5,8.85981093 33.7,9.30981093 33.7,9.30981093 C33.7,9.30981093 33.5,9.77981093 33.48,9.80981093 C33.46,9.83981093 33.11,10.0998109 33.11,10.0998109 L33.21,10.2098109 C33.21,10.2098109 32.84,10.0998109 32.83,10.0598109 C32.82,10.0298109 32.67,9.70981093 32.67,9.70981093 L32.08,9.63981093 L31.83,9.40981093 C31.83,9.40981093 31.8,9.55981093 31.79,9.59981093 C31.78,9.63981093 31.81,9.75981093 31.81,9.75981093 C31.81,9.75981093 31.85,9.67981093 31.95,9.70981093 C32.05,9.73981093 32.59,9.94981093 32.59,9.99981093 C32.59,10.0498109 32.66,10.4198109 32.7,10.5498109 C32.74,10.6698109 32.83,10.8698109 32.83,10.8698109 L32.98,10.9298109 C32.98,10.9298109 32.81,11.0798109 32.79,11.1298109 C32.77,11.1798109 32.79,11.3998109 32.81,11.4598109 C32.83,11.5198109 33.08,11.8998109 33.06,11.9498109 C33.04,11.9998109 33,12.2798109 33,12.2798109 L32.84,12.2798109 L32.84,12.4598109 C32.84,12.4598109 32.78,12.3498109 32.75,12.3298109 C32.72,12.3098109 32.49,12.2598109 32.49,12.2598109 L32.41,12.1798109 L32.2,12.2898109 C32.2,12.2898109 32.02,11.8398109 31.97,11.7798109 C31.92,11.7198109 31.83,11.3198109 31.77,11.3798109 C31.71,11.4298109 31.45,11.6098109 31.45,11.6398109 C31.45,11.6698109 31.54,12.1798109 31.54,12.1798109 C31.54,12.1798109 31.38,12.1498109 31.36,12.1198109 C31.34,12.0898109 31.29,11.7698109 31.29,11.7398109 C31.29,11.7098109 31.41,11.3598109 31.39,11.2598109 C31.37,11.1698109 31.14,10.8598109 31.14,10.8598109 C31.14,10.8598109 30.18,11.2298109 30.15,11.2298109 C30.12,11.2298109 30.01,11.0698109 29.96,11.1198109 C29.91,11.1598109 29.67,11.3998109 29.67,11.3998109 L29.75,11.5598109 L30.01,11.4898109 C30.01,11.4898109 30.36,11.9698109 30.36,12.0398109 C30.36,12.1098109 30.39,12.3398109 30.35,12.3898109 C30.31,12.4398109 30,12.5798109 30,12.6098109 C30,12.6398109 30.07,12.9498109 30.07,12.9898109 C30.07,13.0298109 30.16,13.1898109 30.19,13.1898109 C30.22,13.1898109 30.37,13.1298109 30.37,13.1298109 L30.33,13.3498109 L30.94,13.2498109 C30.94,13.2498109 30.94,13.0998109 31.01,13.0698109 C31.09,13.0398109 31.39,12.9698109 31.39,12.9398109 C31.39,12.9098109 31.41,12.6098109 31.44,12.6098109 C31.47,12.6098109 31.73,12.6298109 31.73,12.6298109 C31.73,12.6298109 31.9,12.4198109 31.9,12.4598109 C31.9,12.4998109 31.74,13.0798109 31.74,13.0798109 L31.53,13.1498109 C31.53,13.1498109 31.75,13.1598109 31.75,13.2198109 C31.75,13.2798109 31.71,13.4198109 31.75,13.4698109 C31.79,13.5198109 32.02,13.7598109 32.02,13.7998109 C32.02,13.8398109 32.05,14.0798109 32.05,14.1098109 C32.05,14.1398109 32.4,14.1998109 32.4,14.1998109 L32.44,13.9798109 L32.67,14.0798109 L32.65,14.2598109 L32.48,14.3098109 L32.39,14.4698109 L32.54,14.4698109 L32.66,14.3798109 C32.66,14.3798109 33.28,14.9598109 33.31,14.9898109 C33.34,15.0198109 33.89,15.3298109 33.91,15.3598109 C33.93,15.3898109 34.02,15.6298109 34.02,15.6298109 C34.02,15.6298109 34.22,15.5098109 34.21,15.5698109 C34.21,15.6298109 34.15,15.8098109 34.15,15.8098109 L34.31,15.7598109 L34.16,15.9398109 L34.14,16.0598109 C34.14,16.0598109 34.5,15.8198109 34.47,15.8898109 C34.44,15.9598109 34.12,16.3798109 34.12,16.4198109 C34.12,16.4598109 34.08,16.7198109 34.08,16.7198109 C34.08,16.7198109 33.98,16.4498109 33.98,16.4898109 C33.98,16.5298109 33.91,16.9898109 33.91,16.9898109 C33.91,16.9898109 33.01,16.3898109 32.98,16.4298109 C32.95,16.4698109 32.83,16.8498109 32.78,16.8398109 C32.73,16.8298109 32.49,16.7298109 32.4,16.7398109 C32.31,16.7498109 32.05,16.8698109 32.02,16.8998109 C31.99,16.9198109 31.91,17.1498109 31.91,17.1998109 L31.91,17.2498109 L31.86,17.7998109 C31.86,17.7998109 31.94,18.0398109 31.94,18.0698109 C31.94,18.0998109 31.88,18.2798109 31.88,18.3098109 C31.88,18.3398109 32.15,19.2598109 32.16,19.3298109 C32.16,19.3898109 32.54,19.7398109 32.54,19.7398109 C32.54,19.7398109 32.85,19.5298109 32.87,19.5598109 C32.89,19.5898109 33.16,19.9798109 33.18,20.0198109 C33.2,20.0598109 33.37,20.0698109 33.43,20.1298109 C33.49,20.1898109 33.78,20.4798109 33.79,20.5198109 C33.8,20.5598109 33.96,20.9598109 33.98,20.9998109 C34,21.0398109 34.15,21.1698109 34.15,21.1698109 L34.44,21.1698109 C34.44,21.1698109 34.15,20.4898109 34.13,20.4498109 C34.11,20.4198109 33.46,19.6698109 33.46,19.6698109 L33.25,19.5798109 C33.25,19.5798109 32.72,18.5598109 32.72,18.5298109 C32.72,18.4998109 32.7,18.2898109 32.72,18.2598109 C32.74,18.2298109 32.96,18.1498109 33.05,18.0998109 C33.14,18.0598109 33.28,17.7598109 33.28,17.7198109 C33.28,17.6798109 33.13,17.3798109 33.15,17.3498109 C33.17,17.3198109 33.43,17.2398109 33.43,17.2398109 C33.43,17.2398109 33.45,17.3998109 33.53,17.4098109 C33.61,17.4198109 33.99,17.3798109 33.99,17.3798109 C33.99,17.3798109 34.04,17.5498109 34.06,17.5098109 C34.08,17.4698109 34.19,17.2698109 34.19,17.2698109 C34.19,17.2698109 34.14,17.4398109 34.17,17.4798109 C34.2,17.5198109 34.36,17.6598109 34.39,17.7298109 C34.42,17.7998109 34.48,18.3098109 34.48,18.3398109 C34.48,18.3698109 34.31,18.7598109 34.3,18.8298109 C34.29,18.8898109 34.27,19.3498109 34.3,19.4498109 C34.33,19.5498109 34.64,20.3098109 34.64,20.3098109 L34.86,20.4298109 L35.31,21.0698109 L35.57,21.0998109 L35.64,21.2898109 L35.43,21.1898109 C35.43,21.1898109 35.38,21.2298109 35.39,21.2898109 C35.4,21.3498109 36.13,21.8098109 36.16,21.8098109 C36.19,21.8098109 36.32,21.7398109 36.32,21.7398109 L36.54,21.4098109 L36.61,21.6698109 L36.99,21.6498109 L37.16,21.8198109 L36.92,21.7698109 L36.97,21.9898109 L36.74,21.7598109 C36.74,21.7598109 36.59,21.7498109 36.56,21.8398109 C36.53,21.9298109 36.48,22.3298109 36.48,22.3298109 L36.29,22.3798109 L36.4,22.5798109 L36.27,22.7798109 C36.27,22.7798109 36.38,22.6498109 36.38,22.7798109 C36.38,22.9098109 36.42,22.9498109 36.32,23.0198109 C36.22,23.0898109 36.15,23.1998109 36.09,23.2398109 C36.03,23.2798109 35.11,23.4698109 35.09,23.5698109 C35.07,23.6698109 35.02,24.0298109 35.01,24.0698109 C35.01,24.1098109 34.73,24.5998109 34.71,24.6898109 C34.69,24.7798109 34.63,25.6698109 34.63,25.6698109 C34.63,25.6698109 33.75,26.6998109 33.72,26.7698109 C33.69,26.8398109 33.71,27.2898109 33.71,27.3198109 C33.71,27.3498109 33.88,27.6098109 33.88,27.6798109 C33.88,27.7498109 33.99,28.2998109 33.99,28.3898109 C33.99,28.4798109 34,28.7998109 33.92,28.8298109 C33.84,28.8498109 33.55,29.0498109 33.52,29.1698109 C33.49,29.2898109 33.46,29.6198109 33.46,29.6198109 L33.07,29.8698109 C33.07,29.8698109 33.26,30.1998109 33.37,30.2898109 C33.48,30.3798109 33.95,30.6498109 33.97,30.6798109 C33.99,30.7098109 34.41,31.0398109 34.42,31.1098109 C34.43,31.1698109 34.36,31.8498109 34.36,31.9798109 C34.36,32.1098109 34.51,32.4498109 34.52,32.4798109 C34.53,32.5098109 35.06,33.1798109 35.06,33.1798109 L34.88,33.1798109 L34.74,32.8898109 C34.74,32.8898109 34.4,32.5598109 34.39,32.5198109 C34.38,32.4798109 34.23,31.8798109 34.23,31.8798109 C34.23,31.8798109 33.82,31.3198109 33.79,31.3298109 C33.76,31.3398109 33.26,31.6298109 33.27,31.7798109 C33.28,31.9298109 33.55,32.1798109 33.55,32.2498109 C33.55,32.3198109 33.57,33.0498109 33.57,33.0798109 C33.57,33.1098109 34.08,33.8298109 34.07,33.8598109 C34.06,33.8898109 33.9,34.0598109 33.91,34.0998109 C33.92,34.1398109 33.94,34.1898109 33.93,34.2698109 C33.92,34.3398109 33.79,34.4998109 33.79,34.4998109 C33.79,34.4998109 34.17,34.6798109 34.18,34.7398109 C34.18,34.7998109 34.24,35.3098109 34.24,35.3098109 C34.24,35.3098109 34.52,35.4098109 34.53,35.6398109 C34.54,35.8698109 34.59,36.7798109 34.53,36.8298109 C34.47,36.8798109 33.86,37.0498109 33.82,37.0798109 C33.79,37.1098109 33.75,37.2298109 33.75,37.2298109 C33.75,37.2298109 33.61,37.1598109 33.58,37.1698109 C33.55,37.1798109 33.44,37.3598109 33.4,37.3598109 C33.36,37.3598109 33.01,37.3398109 32.99,37.4098109 C32.97,37.4798109 32.96,37.5998109 32.93,37.6198109 C32.9,37.6398109 32.77,37.6798109 32.77,37.6798109 L32.74,37.7798109 L33.15,37.9098109 C33.15,37.9098109 33.52,38.1898109 33.53,38.2498109 C33.54,38.3098109 33.22,38.1498109 33.22,38.1498109 L33.17,38.2198109 L33.5,38.5498109 L33.15,38.3298109 L33.06,38.3598109 L33.14,38.5098109 C33.16,38.6898109 32.97,38.5498109 32.97,38.5498109 L32.89,38.5498109 C32.89,38.5498109 32.89,38.5798109 32.85,38.5998109 C32.82,38.6198109 32.76,38.4998109 32.7,38.4398109 C32.64,38.3798109 32.25,38.1998109 32.2,38.1398109 C32.15,38.0798109 31.79,37.5898109 31.79,37.5898109 L31.73,37.7398109 L31.35,37.3398109 C31.35,37.3398109 31.23,37.3298109 31.23,37.3798109 C31.23,37.4298109 31.5,38.0698109 31.48,38.1598109 C31.46,38.2398109 31.01,39.0098109 30.96,39.1398109 C30.91,39.2698109 30.72,40.0598109 30.65,40.1798109 C30.58,40.2898109 30.27,40.5498109 30.24,40.5698109 L30.21,40.5898109 C30.21,40.5898109 30.09,40.9798109 30.08,41.0298109 C30.07,41.0698109 30.03,41.2098109 29.92,41.2898109 C29.81,41.3698109 29.65,41.3598109 29.62,41.3998109 C29.59,41.4398109 29.24,42.0398109 29.19,42.0898109 C29.14,42.1398109 29.02,42.1998109 28.99,42.1998109 C28.96,42.1998109 28.92,42.1098109 28.89,42.1098109 C28.86,42.1098109 28.58,42.1998109 28.58,42.1998109 L28.46,42.4898109 C28.46,42.4898109 28.51,42.0398109 28.46,41.9998109 C28.42,41.9598109 28.12,41.8198109 28.12,41.8198109 C28.12,41.8198109 28.04,41.6698109 28.01,41.6398109 C27.98,41.6098109 27.69,41.5098109 27.65,41.4198109 C27.61,41.3398109 27.56,40.8698109 27.56,40.8698109 L27.42,40.9498109 C27.42,40.9498109 27.41,40.7898109 27.42,40.7398109 C27.42,40.6898109 27.42,40.6498109 27.42,40.6498109 L27.3,40.6698109 C27.3,40.6698109 27.23,40.3398109 27.19,40.3398109 C27.15,40.3398109 27.14,40.2798109 27.14,40.5098109 C27.14,40.7398109 27.01,41.2898109 27.03,41.3498109 C27.05,41.4098109 27.16,42.1598109 27.16,42.1598109 L27.03,42.1598109 C27.03,42.1598109 26.79,41.3898109 26.79,41.3898109 L26.62,41.4098109 L26.73,41.2398109 C26.73,41.2398109 26.55,41.0798109 26.62,41.0798109 C26.69,41.0798109 26.87,41.1698109 26.87,41.1698109 L26.87,40.5998109 C26.87,40.5998109 26.6,40.6298109 26.6,40.6298109 L26.68,40.7998109 L26.6,40.8498109 C26.6,40.8498109 26.5,40.7398109 26.47,40.7498109 C26.44,40.7598109 26.15,41.0498109 26.15,41.0498109 C26.15,41.0498109 26.07,40.9698109 26.04,40.9898109 C26.01,41.0098109 25.82,41.0498109 25.87,41.0998109 C25.92,41.1498109 26.06,41.5698109 26.06,41.6098109 C26.06,41.6498109 25.86,42.4698109 25.86,42.4698109 L25.93,42.5798109 L26.08,42.5798109 C26.08,42.5798109 25.97,42.6898109 25.99,42.7298109 C26.01,42.7598109 26.07,43.0398109 26.07,43.0398109 L25.99,43.0398109 L25.86,42.8698109 C25.86,42.8698109 25.83,43.2098109 25.8,43.1798109 C25.77,43.1498109 25.63,42.5198109 25.58,42.4898109 C25.53,42.4598109 25.37,42.3798109 25.37,42.3798109 C25.37,42.3798109 25.64,41.7098109 25.64,41.6698109 C25.64,41.6298109 25.61,40.9798109 25.61,40.9798109 C25.61,40.9798109 25.39,41.5198109 25.37,41.5498109 C25.35,41.5798109 25.43,41.6598109 25.43,41.7398109 C25.43,41.8198109 25.24,42.0498109 25.24,42.0498109 L24.8,42.3398109 C24.8,42.3398109 24.44,42.5498109 24.44,42.5798109 L24.44,42.8198109 C24.44,42.8198109 24.62,42.8798109 24.63,42.9098109 C24.63,42.9398109 24.7,43.2298109 24.7,43.2798109 C24.7,43.3298109 24.54,43.5098109 24.54,43.5098109 L24.56,43.0598109 C24.56,43.0598109 24.25,42.7498109 24.25,42.7098109 C24.25,42.6698109 24.18,42.5898109 24.25,42.5398109 C24.32,42.4998109 24.56,42.3498109 24.61,42.3098109 C24.66,42.2698109 24.76,42.0198109 24.76,42.0198109 L24.69,41.8598109 C24.69,41.8598109 25.12,41.8698109 25.12,41.8298109 C25.12,41.7898109 25.04,41.6698109 25.04,41.6698109 C25.04,41.6698109 25.04,41.4698109 25.11,41.3298109 C25.18,41.1798109 25.42,40.9698109 25.42,40.9698109 L25.42,40.6798109 C25.42,40.6798109 25.55,40.8898109 25.55,40.8898109 C25.55,40.8898109 25.69,40.7098109 25.72,40.6298109 C25.75,40.5498109 25.71,40.3998109 25.69,40.3598109 C25.67,40.3198109 25.39,40.1598109 25.39,40.1598109 C25.39,40.1598109 25.4,40.2998109 25.39,40.3498109 C25.39,40.3898109 24.83,41.1298109 24.83,41.1298109 L24.76,40.9498109 C24.76,40.9498109 24.64,40.9498109 24.53,40.9998109 L24.42,41.0498109 C24.42,41.0498109 24.58,41.1498109 24.57,41.2098109 C24.57,41.2598109 24.41,41.5498109 24.32,41.6098109 C24.23,41.6698109 23.9,41.8398109 23.9,41.8398109 L23.82,41.7298109 C23.82,41.7298109 23.65,41.7098109 23.59,41.7598109 C23.53,41.8098109 23.35,42.1598109 23.35,42.1598109 L23.35,41.9098109 L23.22,41.9998109 C23.22,41.9998109 23.22,41.8298109 23.29,41.7698109 C23.36,41.7098109 23.66,41.4998109 23.72,41.4698109 C23.78,41.4398109 24.15,41.4098109 24.19,41.3898109 C24.23,41.3698109 24.26,40.8398109 24.23,40.8398109 C24.2,40.8398109 23.75,40.8798109 23.75,40.8798109 L23.37,41.2798109 L23.27,41.1298109 C23.27,41.1298109 23.63,40.8298109 23.66,40.8098109 C23.69,40.7898109 24.24,40.6898109 24.24,40.6898109 L24.44,40.8198109 C24.44,40.8198109 24.51,40.5098109 24.6,40.4798109 C24.69,40.4498109 25.09,40.3998109 25.12,40.3898109 C25.15,40.3798109 25.42,39.8998109 25.42,39.8998109 C25.42,39.8998109 25.42,39.7498109 25.37,39.7498109 C25.32,39.7498109 24.6,39.8398109 24.6,39.8398109 C24.6,39.8398109 24.45,39.6498109 24.42,39.6498109 C24.39,39.6498109 23.68,39.7298109 23.68,39.7298109 L23.44,39.5498109 L23.14,39.5498109 L23.19,39.4598109 L23.35,39.3798109 L24.02,38.5798109 L24.31,38.4698109 L24.4,38.5198109 C24.4,38.5198109 23.9,38.9098109 23.9,38.9598109 C23.9,39.0098109 24.14,39.2898109 24.14,39.2898109 C24.14,39.2898109 23.92,39.1698109 23.89,39.1898109 C23.86,39.2098109 23.54,39.4998109 23.54,39.4998109 C23.54,39.4998109 23.59,39.5998109 23.7,39.5998109 C23.81,39.5998109 24.52,39.4998109 24.52,39.4998109 L24.7,39.7398109 C24.7,39.7398109 25.09,39.5398109 25.12,39.5598109 C25.15,39.5798109 25.51,39.6498109 25.51,39.6498109 L25.48,38.7198109 L25.62,38.7498109 L25.75,37.7798109 C25.75,37.7798109 25.74,37.9298109 25.83,37.8898109 C25.92,37.8498109 26.59,37.5598109 26.59,37.5598109 L26.59,37.1398109 C26.59,37.1398109 26.69,37.3598109 26.72,37.3598109 C26.75,37.3598109 26.89,37.3098109 26.93,37.2498109 L26.97,37.1898109 C26.97,37.1898109 27.21,36.5498109 27.21,36.4798109 C27.21,36.4098109 27.22,36.1098109 27.22,36.1098109 L27.15,36.1298109 C27.15,36.1298109 27.1,36.0398109 27.1,35.9998109 C27.1,35.9598109 27.25,35.5098109 27.25,35.5098109 L27.21,35.3498109 C27.21,35.3498109 27.3,35.2598109 27.31,35.3198109 C27.31,35.3798109 27.41,35.5498109 27.41,35.5998109 C27.41,35.6498109 27.44,35.7898109 27.39,35.8898109 C27.34,35.9898109 27.39,36.3898109 27.42,36.3898109 C27.45,36.3898109 27.8,36.2098109 27.8,36.2798109 C27.8,36.3498109 27.76,36.6498109 27.76,36.6498109 L28.11,36.8598109 L27.79,36.8998109 C27.79,36.8998109 27.73,36.7498109 27.73,36.8198109 C27.73,36.8898109 27.68,37.4798109 27.68,37.4798109 C27.68,37.4798109 27.84,37.3298109 27.84,37.3898109 C27.84,37.4498109 27.66,37.8798109 27.63,37.9398109 C27.6,37.9998109 27.4,38.1098109 27.36,38.1998109 C27.32,38.2898109 27.09,38.8098109 27.09,38.8798109 C27.09,38.9498109 27.17,39.1298109 27.23,39.1798109 C27.29,39.2298109 27.53,39.4098109 27.53,39.4098109 C27.53,39.4098109 27.43,39.3998109 27.42,39.4798109 C27.41,39.5598109 27.46,39.6898109 27.49,39.7698109 C27.52,39.8498109 27.72,40.1898109 27.72,40.1898109 L27.95,40.0998109 C27.95,40.0998109 27.84,40.2098109 27.83,40.3098109 C27.82,40.3998109 27.97,40.6498109 27.97,40.6498109 C27.97,40.6498109 28.14,40.5398109 28.16,40.4898109 C28.18,40.4498109 28.38,39.9098109 28.38,39.9098109 C28.38,39.9098109 28.24,40.0298109 28.24,39.9798109 C28.24,39.9298109 28.13,39.7298109 28.14,39.6398109 C28.14,39.5498109 28.25,39.2998109 28.25,39.2998109 C28.25,39.2998109 28.23,39.6998109 28.29,39.6598109 C28.35,39.6198109 28.63,39.4098109 28.63,39.3798109 C28.63,39.3498109 28.67,38.8398109 28.67,38.8398109 L28.42,38.7998109 L28.49,38.4498109 L28.18,38.6298109 L28.26,38.3598109 L28.05,38.3598109 C28.05,38.3598109 28.03,38.2698109 28.03,38.2698109 C28.03,38.2698109 28.27,38.0498109 28.28,37.9898109 C28.29,37.9298109 28.67,36.9998109 28.67,36.9998109 C28.67,36.9998109 28.58,36.9898109 28.54,36.9698109 C28.5,36.9498109 28.47,36.6498109 28.47,36.6498109 C28.47,36.6498109 28.64,36.7798109 28.67,36.7998109 C28.7,36.8098109 28.82,36.8098109 28.89,36.7598109 C28.96,36.7098109 29.16,36.4998109 29.16,36.4998109 C29.16,36.4998109 29.06,36.4698109 29.06,36.4398109 C29.06,36.4098109 29.15,36.1798109 29.15,36.1798109 C29.15,36.1798109 29.1,36.3498109 29.21,36.3698109 C29.32,36.3898109 30.05,35.9498109 30.05,35.9498109 C30.05,35.9498109 29.98,35.6898109 29.98,35.6198109 C29.98,35.5498109 30.14,35.2898109 30.14,35.3198109 C30.14,35.3498109 30.09,35.5998109 30.1,35.6698109 C30.11,35.7398109 30.17,36.1498109 30.17,36.1798109 C30.17,36.2098109 29.49,36.8098109 29.49,36.8098109 L29.72,36.9398109 L29.72,37.1698109 L29.46,37.2798109 C29.46,37.2798109 29.6,37.1198109 29.55,37.0798109 C29.5,37.0398109 29.4,36.9798109 29.37,37.0398109 C29.34,37.0998109 29.16,37.5598109 29.16,37.5598109 C29.16,37.5598109 29.36,37.6498109 29.33,37.7698109 C29.3,37.8798109 29.23,38.0198109 29.2,38.0098109 C29.17,37.9998109 29.09,37.8898109 29.08,37.9198109 C29.07,37.9498109 29.02,38.0698109 29.04,38.1098109 C29.06,38.1498109 29.2,38.2598109 29.2,38.2598109 L29.33,37.9998109 C29.33,37.9998109 30.06,38.4098109 30.12,38.4198109 C30.18,38.4298109 30.52,38.4298109 30.46,38.3198109 C30.4,38.2098109 30.21,37.7198109 30.24,37.7298109 C30.27,37.7398109 30.62,38.2098109 30.62,38.2498109 C30.62,38.2898109 30.5,38.5198109 30.5,38.5498109 C30.5,38.5798109 30.71,38.7798109 30.71,38.7798109 L31.24,38.1798109 L30.75,37.0098109 L30.93,37.1198109 L31.23,36.3798109 C31.23,36.3798109 31.46,36.2098109 31.45,36.1598109 C31.44,36.1098109 31.2,35.7198109 31.2,35.7198109 C31.2,35.7198109 31.38,35.3398109 31.38,35.2998109 C31.38,35.2598109 31.24,35.0198109 31.24,35.0198109 L31.48,35.0798109 L31.52,34.9598109 C31.52,34.9598109 31.59,34.0998109 31.61,34.0598109 C31.63,34.0198109 32.13,33.2498109 32.13,33.2198109 C32.13,33.1898109 32.11,33.0398109 32.02,32.9998109 C31.93,32.9598109 31.39,32.8898109 31.39,32.8898109 C31.39,32.8898109 31.51,32.4498109 31.51,32.4198109 C31.51,32.3898109 31.44,32.1898109 31.45,32.1598109 C31.45,32.1298109 31.62,31.9398109 31.62,31.9398109 L31.49,31.8598109 L31.34,31.9798109 C31.34,31.9798109 31.44,31.6698109 31.43,31.6198109 C31.42,31.5698109 31.31,31.4398109 31.31,31.4398109 C31.31,31.4398109 31.09,31.5198109 31.04,31.5598109 C30.99,31.5998109 30.51,32.3398109 30.51,32.3398109 L29.91,32.5398109 C29.91,32.5398109 29.72,32.4098109 29.68,32.4798109 C29.64,32.5498109 29.63,32.6098109 29.6,32.6398109 C29.57,32.6598109 29.17,32.7198109 29.17,32.7198109 C29.17,32.7198109 29.48,32.5498109 29.52,32.4998109 C29.56,32.4498109 29.72,32.1998109 29.75,32.1898109 C29.78,32.1798109 30.14,32.0598109 30.14,32.0598109 C30.14,32.0598109 30.21,31.8398109 30.23,31.8098109 C30.25,31.7798109 30.2,31.6598109 30.15,31.6498109 C30.1,31.6398109 29.9,31.5898109 29.9,31.5898109 C29.9,31.5898109 29.88,31.3698109 29.83,31.4198109 C29.78,31.4698109 29.7,31.5498109 29.7,31.5498109 L29.54,31.2498109 C29.54,31.2498109 29.47,31.2598109 29.49,31.3198109 C29.51,31.3798109 29.66,31.8498109 29.66,31.8498109 L29.52,31.7898109 C29.52,31.7898109 29.36,31.5498109 29.36,31.4998109 C29.36,31.4498109 29.41,31.0498109 29.37,31.0198109 L29.33,30.9898109 C29.33,30.9898109 29.15,31.0698109 29.13,31.0298109 C29.11,30.9898109 29.05,30.9398109 29.05,30.8998109 C29.05,30.8598109 29.17,30.3598109 29.19,30.3298109 C29.21,30.2998109 29.43,30.1398109 29.43,30.1398109 C29.43,30.1398109 29.67,30.1998109 29.67,30.2298109 C29.67,30.2298109 29.51,30.5698109 29.55,30.6298109 C29.59,30.6898109 29.79,30.8098109 29.79,30.8598109 C29.79,30.9098109 29.84,31.2398109 29.85,31.2698109 C29.86,31.2998109 30.43,31.8698109 30.43,31.8698109 C30.43,31.8698109 30.49,31.8798109 30.55,31.8198109 C30.61,31.7598109 30.8,31.1798109 30.8,31.1798109 L30.64,30.9798109 L30.79,30.3998109 C30.79,30.3998109 30.44,30.1698109 30.45,30.0998109 C30.46,30.0298109 30.45,29.0798109 30.45,29.0798109 L30.35,29.0298109 L30.53,28.9398109 L30.25,28.8198109 L30.27,29.0098109 C30.27,29.0098109 30.13,29.0098109 30.13,28.9798109 C30.13,28.9498109 30.2,28.6898109 30.2,28.6898109 C30.2,28.6898109 30.09,28.8398109 30.08,28.7998109 C30.07,28.7698109 29.83,28.3498109 29.84,28.2898109 C29.84,28.2298109 29.96,27.8398109 29.98,27.9198109 C30,27.9898109 30.15,28.4698109 30.15,28.4698109 C30.15,28.4698109 30.31,28.5298109 30.32,28.5698109 C30.33,28.6098109 30.31,28.7598109 30.31,28.7598109 C30.31,28.7598109 30.47,28.5998109 30.52,28.7298109 C30.57,28.8498109 30.6,28.9398109 30.64,28.9998109 C30.68,29.0598109 30.84,29.2298109 30.85,29.1698109 C30.86,29.1098109 31.34,28.5698109 31.35,28.5198109 C31.36,28.4698109 31.48,28.1998109 31.44,28.1098109 C31.4,28.0198109 31.31,27.8998109 31.3,27.8598109 C31.29,27.8198109 31.39,27.5398109 31.39,27.5398109 C31.39,27.5398109 31.44,27.6698109 31.46,27.7598109 C31.48,27.8398109 31.52,27.9898109 31.52,27.9898109 C31.52,27.9898109 31.87,28.0498109 31.99,28.0698109 C32.11,28.0898109 32.56,27.9898109 32.58,27.9398109 C32.6,27.8898109 32.56,27.3298109 32.49,27.2398109 C32.42,27.1498109 32.1,27.0498109 32.13,26.9798109 C32.16,26.9098109 32.46,26.7098109 32.46,26.6698109 C32.46,26.6298109 32.44,26.4198109 32.44,26.4198109 C32.44,26.4198109 32.15,26.1998109 32.13,26.1598109 C32.11,26.1198109 32.04,25.2898109 32.04,25.1798109 C32.04,25.0698109 31.83,24.6898109 31.83,24.6398109 C31.83,24.5898109 31.92,24.3698109 31.87,24.3498109 C31.82,24.3298109 30.98,24.1798109 30.95,24.0998109 C30.92,24.0198109 30.74,23.7498109 30.74,23.7498109 C30.74,23.7498109 30.61,23.7098109 30.6,23.7598109 C30.59,23.8098109 30.59,24.0498109 30.59,24.0498109 C30.59,24.0498109 30.79,24.0698109 30.86,24.1398109 C30.93,24.2098109 31.08,24.4998109 31.08,24.4998109 C31.08,24.4998109 30.95,24.4198109 30.96,24.5098109 C30.97,24.5998109 31.19,25.1798109 31.19,25.2698109 C31.19,25.3598109 31.11,25.5998109 31.14,25.6898109 C31.17,25.7798109 31.28,26.2498109 31.28,26.2798109 C31.28,26.3098109 31.13,26.4598109 31.1,26.4598109 C31.07,26.4598109 30.95,26.3098109 30.95,26.2498109 C30.95,26.1898109 31.05,25.5598109 31.02,25.5598109 C30.99,25.5598109 30.73,25.4698109 30.68,25.5398109 C30.63,25.6098109 30.53,25.8998109 30.44,25.9898109 C30.35,26.0698109 29.57,26.6798109 29.53,26.7498109 C29.49,26.8098109 29.48,27.1398109 29.42,27.2198109 C29.36,27.2898109 29.03,27.4598109 29.01,27.5298109 C28.99,27.5998109 28.9,28.1098109 28.87,28.1198109 C28.84,28.1298109 28.77,28.1498109 28.73,28.1698109 C28.69,28.1898109 28.56,28.4398109 28.53,28.5398109 C28.5,28.6398109 28.61,28.9098109 28.59,28.9798109 C28.57,29.0398109 28.41,29.6798109 28.41,29.6798109 C28.41,29.6798109 28.14,29.7298109 28.12,29.7698109 C28.1,29.8098109 28.03,30.0198109 28.03,30.0198109 C28.03,30.0198109 27.92,29.8798109 27.89,29.8998109 C27.86,29.9198109 27.27,30.3198109 27.27,30.3198109 L27.32,29.9298109 C27.32,29.9298109 27.17,29.9698109 27.08,30.0298109 C26.99,30.0898109 26.82,30.3398109 26.75,30.3698109 C26.68,30.3998109 26,30.5898109 26,30.6898109 C26,30.7898109 26,30.9898109 25.93,31.0798109 C25.86,31.1698109 25.8,31.2698109 25.73,31.2798109 C25.66,31.2898109 25.37,31.2598109 25.32,31.3598109 C25.27,31.4598109 25.27,31.7198109 25.25,31.7598109 C25.23,31.7998109 24.42,32.6498109 24.36,32.7798109 C24.3,32.8998109 24.29,33.3598109 24.24,33.4098109 C24.19,33.4598109 23.54,34.2698109 23.45,34.4398109 C23.36,34.6098109 22.88,35.4898109 22.88,35.5598109 C22.88,35.6298109 22.98,35.8998109 23.01,35.9198109 C23.04,35.9398109 23.77,36.0298109 23.77,36.0298109 L24.04,35.8598109 L24.09,35.9898109 C24.09,35.9898109 23.91,35.9498109 23.91,36.0698109 C23.91,36.1898109 24.14,36.2898109 24.17,36.2898109 C24.2,36.2898109 24.44,35.8498109 24.54,35.7698109 C24.64,35.6898109 25.11,35.4998109 25.16,35.4798109 C25.21,35.4598109 26.07,35.1298109 26.07,35.1298109 L26.14,34.9298109 C26.14,34.9298109 26.36,34.9798109 26.44,34.9298109 C26.52,34.8798109 27.02,34.4298109 27.02,34.4298109 C27.02,34.4298109 26.99,34.7998109 26.96,34.8198109 C26.93,34.8398109 26,35.6898109 25.96,35.6898109 C25.92,35.6898109 25.07,35.7798109 24.96,35.8798109 C24.85,35.9698109 24.22,36.4498109 24.19,36.4498109 C24.16,36.4498109 23.63,36.5598109 23.61,36.4998109 C23.59,36.4398109 23.61,36.3698109 23.5,36.3398109 C23.39,36.3198109 23.13,36.2898109 23.13,36.2898109 L23.03,36.6398109 C23.03,36.6398109 22.86,36.7398109 22.82,36.7398109 C22.78,36.7398109 22.32,36.4898109 22.3,36.4198109 C22.28,36.3498109 22.3,35.9998109 22.3,35.9998109 L22.44,35.9598109 C22.44,35.9598109 22.83,34.4398109 23.09,34.1198109 C23.35,33.7998109 23.89,33.1598109 23.91,33.0898109 C23.93,33.0298109 24,32.5598109 24.03,32.5198109 C24.06,32.4798109 24.23,32.0798109 24.25,32.0398109 C24.27,31.9998109 24.52,31.8398109 24.55,31.7698109 C24.58,31.6998109 25.07,30.6498109 25.1,30.6298109 C25.13,30.6098109 25.7,30.3298109 25.7,30.3298109 C25.7,30.3298109 25.8,29.9598109 25.83,29.9598109 C25.86,29.9598109 26.18,29.9798109 26.18,29.9798109 C26.18,29.9798109 26.26,29.6298109 26.23,29.6198109 C26.2,29.6098109 26.02,29.6598109 26.02,29.6598109 L26.48,28.9698109 C26.48,28.9698109 26.34,28.7598109 26.37,28.7398109 C26.4,28.7198109 26.52,28.6998109 26.53,28.6298109 C26.54,28.5598109 26.61,28.1698109 26.61,28.1698109 C26.61,28.1698109 26.76,28.2198109 26.76,28.1898109 C26.76,28.1598109 26.71,27.9298109 26.74,27.9198109 C26.77,27.9098109 26.87,27.8898109 26.87,27.8898109 C26.87,27.8898109 26.84,28.0798109 26.89,28.0798109 C26.94,28.0798109 27.05,28.0898109 27.05,28.0398109 C27.05,27.9898109 27.09,27.5598109 27.06,27.5198109 C27.03,27.4798109 26.87,27.3598109 26.85,27.2798109 C26.83,27.1998109 26.74,26.4698109 26.77,26.4398109 C26.8,26.4098109 26.88,26.3698109 26.88,26.3698109 C26.88,26.3698109 26.95,26.1598109 26.96,26.1198109 C26.97,26.0798109 27.02,26.0098109 27.05,26.0898109 C27.08,26.1698109 27.14,26.3098109 27.13,26.4098109 C27.12,26.5098109 27.07,27.0298109 27.07,27.0298109 C27.07,27.0298109 27.18,27.1498109 27.21,27.1498109 C27.24,27.1498109 27.45,27.0798109 27.48,27.0298109 C27.51,26.9798109 27.57,26.5198109 27.57,26.5198109 C27.57,26.5198109 27.45,26.2698109 27.45,26.2198109 C27.45,26.1698109 27.68,25.6398109 27.68,25.6398109 L27.61,25.4098109 L27.68,25.3198109 C27.68,25.3198109 27.76,25.4798109 27.8,25.5798109 C27.84,25.6798109 27.82,25.8698109 27.82,25.8698109 L27.68,25.8198109 C27.68,25.8198109 28.03,26.4698109 28.03,26.6098109 C28.03,26.7498109 27.95,27.0798109 27.88,27.2398109 C27.81,27.4098109 27.65,27.9098109 27.65,27.9398109 C27.65,27.9698109 27.59,28.4698109 27.58,28.4998109 C27.57,28.5298109 27.45,28.5998109 27.38,28.7598109 C27.31,28.9198109 27.31,29.1098109 27.36,29.1698109 C27.41,29.2298109 27.57,29.2898109 27.57,29.2898109 L27.68,29.2398109 L27.59,29.0398109 L27.71,29.0398109 C27.71,29.0398109 27.77,29.1998109 27.8,29.1998109 C27.83,29.1998109 28.14,29.1098109 28.16,29.0698109 C28.18,29.0298109 27.98,28.8498109 27.97,28.7498109 C27.96,28.6498109 28.04,28.2898109 28.09,28.2098109 C28.14,28.1298109 28.25,27.9498109 28.25,27.9498109 C28.25,27.9498109 28.34,27.8998109 28.38,27.8598109 C28.42,27.8198109 28.55,27.2498109 28.55,27.2198109 C28.55,27.1898109 28.56,26.6898109 28.56,26.6898109 L28.67,26.4598109 C28.67,26.4598109 28.81,26.5298109 28.93,26.4498109 C29.05,26.3698109 29.47,26.0398109 29.47,25.9898109 C29.47,25.9398109 29.25,25.1298109 29.34,25.1798109 C29.43,25.2298109 30.19,25.2998109 30.19,25.2698109 C30.19,25.2398109 30.34,24.9898109 30.34,24.9898109 L30.19,24.8098109 L30.34,24.8098109 L30.48,25.0998109 C30.48,25.0998109 30.6,24.8798109 30.56,24.8398109 C30.52,24.7998109 30.15,24.7298109 30.1,24.6698109 C30.05,24.6098109 29.94,24.4798109 29.94,24.4098109 C29.94,24.3398109 29.97,23.7598109 29.94,23.8098109 C29.91,23.8598109 29.67,24.2498109 29.63,24.1698109 C29.59,24.0998109 29.5,23.6998109 29.55,23.6398109 C29.6,23.5798109 29.65,23.1898109 29.65,23.1898109 L29.5,23.4098109 L29.44,23.2398109 L29.68,23.0298109 C29.68,23.0298109 29.67,22.9198109 29.6,22.9198109 C29.53,22.9198109 29.38,22.8898109 29.33,22.8598109 C29.28,22.8298109 29.22,22.7698109 29.18,22.6898109 C29.14,22.6198109 28.99,21.8198109 28.99,21.8198109 L28.88,21.8198109 C28.88,21.8198109 28.92,21.5898109 28.95,21.6098109 C28.98,21.6298109 29.45,22.0698109 29.49,22.0698109 C29.53,22.0698109 29.69,22.0798109 29.7,22.0398109 C29.71,21.9998109 29.79,21.6798109 29.78,21.5698109 C29.77,21.4698109 29.7,21.3198109 29.66,21.1798109 C29.62,21.0398109 29.51,20.4198109 29.52,20.3698109 C29.53,20.3198109 29.54,20.0598109 29.54,20.0598109 L29.19,20.1098109 L28.9,20.2398109 L28.8,20.3898109 C28.8,20.3898109 29.1,20.2898109 29.14,20.3098109 C29.18,20.3298109 29.4,20.9998109 29.4,20.9998109 C29.4,20.9998109 29.5,21.0298109 29.52,21.0798109 C29.54,21.1298109 29.53,21.2498109 29.53,21.2498109 C29.53,21.2498109 29.33,21.1298109 29.33,21.1598109 C29.33,21.1898109 29.5,21.5098109 29.51,21.5698109 C29.51,21.6298109 29.39,21.8998109 29.37,21.8698109 C29.35,21.8398109 29.03,20.4298109 29.03,20.4298109 C29.03,20.4298109 28.8,20.4098109 28.8,20.5198109 C28.8,20.6298109 28.77,20.9698109 28.79,21.0698109 C28.81,21.1698109 28.88,21.4798109 28.88,21.4798109 C28.88,21.4798109 28.84,21.5998109 28.81,21.6098109 C28.78,21.6198109 28.63,21.6898109 28.6,21.6298109 C28.57,21.5698109 28.39,21.2598109 28.4,21.1598109 C28.41,21.0698109 28.48,21.0898109 28.42,20.9398109 C28.36,20.7898109 27.97,20.4498109 28,20.3698109 C28.03,20.2898109 27.97,20.1498109 28.12,20.0798109 C28.27,20.0098109 28.7,19.7598109 28.7,19.7098109 C28.7,19.6598109 28.52,19.3598109 28.52,19.3598109 L28.65,19.0798109 C28.65,19.0798109 27.56,19.1198109 27.46,19.2298109 C27.36,19.3298109 26.75,19.8898109 26.75,19.9198109 C26.75,19.9498109 26.8,20.1698109 26.81,20.1998109 C26.82,20.2298109 26.59,20.5198109 26.68,20.5498109 C26.77,20.5798109 27.05,20.7098109 27.11,20.7898109 C27.17,20.8698109 27.54,21.1198109 27.54,21.2998109 C27.54,21.4798109 27.49,21.8398109 27.4,21.9998109 C27.31,22.1698109 27.22,22.2798109 27.17,22.3198109 C27.12,22.3598109 26.69,22.4498109 26.69,22.4498109 C26.69,22.4498109 26.99,22.0298109 27.02,21.9698109 C27.05,21.9198109 27.03,21.6498109 27,21.5498109 C26.97,21.4498109 26.98,21.2298109 26.84,21.1598109 C26.7,21.0898109 26.27,20.9398109 26.22,20.8798109 C26.17,20.8198109 26.07,20.8598109 26.11,20.7098109 C26.15,20.5598109 26.29,20.0998109 26.25,20.0998109 C26.21,20.0998109 25.39,20.0698109 25.31,20.0798109 C25.23,20.0898109 24.44,20.3998109 24.51,20.3998109 C24.58,20.3998109 24.72,20.2798109 24.8,20.3898109 C24.88,20.4998109 25.01,20.7498109 25,20.7798109 C24.99,20.8098109 24.85,20.7998109 24.9,20.9598109 C24.95,21.1198109 25.01,21.3998109 25.04,21.4598109 C25.07,21.5198109 24.96,21.6298109 24.91,21.5898109 C24.86,21.5598109 24.39,20.8298109 24.39,20.8298109 L24.39,20.3798109 C24.39,20.3798109 24.31,20.2798109 24.31,20.2798109 C24.31,20.2798109 24.4,20.1098109 24.4,20.0698109 L24.4,20.0298109 C24.4,20.0298109 24.13,19.5298109 24.08,19.4298109 C24.03,19.3298109 23.35,18.7498109 23.35,18.7498109 C23.35,18.7498109 23.29,18.8598109 23.23,18.8298109 C23.17,18.7998109 22.94,18.7498109 22.94,18.7498109 L22.46,18.8398109 L22.97,18.2698109 L23.02,18.5898109 C23.02,18.5898109 23.06,18.3398109 23.2,18.2698109 C23.34,18.1998109 23.59,18.1698109 23.61,18.1398109 C23.63,18.1098109 23.68,17.9698109 23.63,17.9798109 C23.58,17.9898109 22.93,18.1798109 22.89,18.2098109 C22.85,18.2398109 22.36,18.9698109 22.21,19.0398109 C22.06,19.1098109 21.48,19.5198109 21.43,19.5198109 C21.38,19.5198109 20.96,19.3198109 20.85,19.3598109 C20.74,19.3998109 20.72,19.4698109 20.52,19.4898109 C20.32,19.5098109 19.49,19.4998109 19.42,19.4798109 C19.35,19.4598109 18.43,19.1098109 18.43,19.1098109 L18.43,18.9798109 C18.43,18.9798109 18.66,18.9198109 18.69,18.9198109 C18.72,18.9198109 19.17,18.8898109 19.17,18.8898109 C19.17,18.8898109 18.68,18.8098109 18.6,18.8198109 C18.52,18.8298109 17.71,19.0698109 17.63,19.0198109 C17.55,18.9698109 17.31,18.6598109 17.24,18.6398109 C17.17,18.6198109 17.15,18.5098109 16.99,18.5898109 C16.83,18.6698109 16.49,18.9098109 16.43,18.9098109 C16.37,18.9098109 16.05,18.8398109 15.98,18.8198109 C15.91,18.7998109 15.78,18.7498109 15.78,18.7198109 C15.78,18.6898109 15.86,18.5898109 15.78,18.5298109 C15.7,18.4798109 15.72,18.4198109 15.51,18.3698109 C15.3,18.3298109 15.01,18.1198109 14.92,18.1598109 C14.83,18.1998109 14.61,18.3798109 14.61,18.3798109 C14.61,18.3798109 14.68,18.1498109 14.51,18.2098109 C14.34,18.2698109 13.98,18.3498109 13.86,18.3798109 C13.74,18.3998109 13.15,18.3198109 13.15,18.3198109 L13.15,18.2098109 L12.43,18.3398109 C12.43,18.3398109 12.47,18.2398109 12.38,18.2198109 C12.29,18.1998109 11.46,18.1998109 11.46,18.1998109 C11.46,18.1998109 11.48,17.9898109 11.39,18.0198109 C11.3,18.0498109 10.91,18.0698109 10.81,18.0598109 C10.71,18.0498109 9.87,17.7698109 9.87,17.7698109 C9.87,17.7698109 9.75,17.5398109 9.72,17.5198109 C9.69,17.4998109 9.07,17.2398109 9.03,17.2198109 C8.99,17.1998109 8.98,16.9498109 8.98,16.9498109 L9.11,17.0698109 C9.11,17.0698109 9.19,16.8598109 9.14,16.8298109 C9.09,16.7998109 8.66,16.6498109 8.61,16.6398109 C8.56,16.6298109 7.33,15.7798109 7.3,15.7698109 C7.27,15.7598109 7.13,15.6398109 7.07,15.6798109 C7.01,15.7198109 6.89,15.8498109 6.86,15.8698109 C6.83,15.8898109 6.48,15.8898109 6.42,15.8298109 C6.36,15.7698109 6.33,15.5698109 6.24,15.5298109 C6.15,15.4898109 5.8,15.4698109 5.75,15.4098109 C5.7,15.3498109 5.59,15.1498109 5.59,15.1498109 C5.59,15.1498109 5.27,15.1998109 5.23,15.1898109 L5.19,15.1898109 C5.19,15.1898109 5.01,15.1298109 4.94,15.0598109 C4.87,14.9898109 4.78,14.8598109 4.72,14.7998109 C4.66,14.7398109 4.46,14.7198109 4.42,14.6998109 C4.38,14.6798109 3.5,13.9098109 3.46,13.8698109 C3.42,13.8298109 3.03,13.7898109 2.96,13.6898109 C2.89,13.5998109 2.65,13.2798109 2.59,13.2398109 C2.53,13.2098109 2.3,13.1098109 2.22,13.1198109 C2.14,13.1298109 1.79,13.3098109 1.77,13.2398109 C1.77,13.2398109 1.65,12.7298109 1.57,12.7198109 C1.49,12.7098109 0.76,12.6498109 0.76,12.6498109 L0.59,12.7298109 L0.45,12.6098109 C0.45,12.6098109 0.27,12.7298109 0.25,12.8098109 C0.23,12.8798109 0.26,13.0298109 0.25,13.0798109 C0.25,13.1298109 0.44,13.0698109 0.45,13.1198109 C0.46,13.1698109 0.44,13.3098109 0.51,13.4098109 C0.58,13.5098109 0.84,13.8098109 0.84,13.8098109 C0.84,13.8098109 1.07,13.7398109 1.1,13.7798109 C1.13,13.8198109 1.21,13.9798109 1.19,14.0098109 C1.17,14.0398109 1.15,14.1398109 1.15,14.1398109 L0.99,14.1398109 C0.99,14.1398109 1.16,14.2598109 1.14,14.3498109 C1.12,14.4298109 1.13,14.6098109 1.06,14.6498109 C0.99,14.6898109 0.8,14.7798109 0.79,14.8198109 C0.78,14.8498109 0.83,14.9798109 0.83,15.1598109 C0.83,15.3398109 0.79,15.5398109 0.76,15.5698109 C0.73,15.5998109 0.43,15.8698109 0.43,15.9398109 C0.43,16.0098109 0.63,16.3298109 0.63,16.4198109 C0.63,16.5098109 0.52,16.9598109 0.45,17.0498109 C0.38,17.1398109 0,17.5698109 0,17.5698109 L0.1,17.5598109 Z" id="Path"></path>
                <path d="M25.39,0.799810928 C25.39,0.799810928 25.49,0.709810928 25.49,0.679810928 C25.49,0.649810928 25.29,0.209810928 25.26,0.179810928 C25.23,0.149810928 24.49,0.119810928 24.49,0.119810928 C24.49,0.119810928 24.57,0.899810928 24.6,0.879810928 C24.63,0.859810928 25.11,0.719810928 25.11,0.719810928 C25.11,0.719810928 25.35,0.799810928 25.38,0.799810928 L25.39,0.799810928 Z" id="Path"></path>
                <path d="M26.76,5.41981093 C26.76,5.41981093 27.37,5.49981093 27.37,5.49981093 L26.98,5.27981093 C26.98,5.27981093 26.73,5.39981093 26.76,5.40981093 L26.76,5.41981093 Z" id="Path"></path>
                <path d="M25.58,6.63981093 C25.57,6.55981093 25.45,6.32981093 25.45,6.32981093 C25.45,6.32981093 25.02,6.44981093 24.99,6.50981093 C24.96,6.55981093 24.89,6.66981093 24.89,6.66981093 L24.63,6.76981093 C24.63,6.76981093 25.08,6.98981093 25.04,7.01981093 C25,7.04981093 24.94,7.31981093 24.94,7.31981093 C24.94,7.31981093 25.43,7.07981093 25.45,7.05981093 C25.47,7.03981093 25.45,6.75981093 25.45,6.75981093 C25.45,6.75981093 25.59,6.72981093 25.58,6.64981093 L25.58,6.63981093 Z" id="Path"></path>
                <path d="M23.09,7.13981093 C23.09,7.13981093 22.95,7.31981093 22.95,7.31981093 C22.95,7.31981093 22.63,7.21981093 22.62,7.16981093 C22.62,7.12981093 22.56,6.98981093 22.56,6.98981093 L22.21,6.98981093 C22.21,6.98981093 22.39,7.36981093 22.47,7.43981093 C22.55,7.49981093 22.95,7.65981093 22.95,7.65981093 L22.95,7.45981093 L22.71,7.26981093 L23.21,7.53981093 L23.13,7.31981093 L23.21,7.24981093 C23.21,7.24981093 23.12,7.12981093 23.09,7.13981093 L23.09,7.13981093 Z" id="Path"></path>
                <polygon id="Path" points="23.3 7.31981093 23.25 7.44981093 23.61 7.70981093 23.43 7.41981093"></polygon>
                <path d="M27.06,5.87981093 L27.06,5.74981093 C27.06,5.74981093 27.11,5.82981093 27.19,5.82981093 C27.27,5.82981093 27.41,5.82981093 27.37,5.79981093 C27.33,5.76981093 27.16,5.60981093 27.16,5.60981093 L26.75,5.49981093 L26.92,5.71981093 L26.83,5.77981093 L27.05,5.87981093 L27.06,5.87981093 Z" id="Path"></path>
                <polygon id="Path" points="23.25 7.81981093 23.21 7.90981093 24 8.23981093 23.78 8.02981093"></polygon>
                <path d="M22.98,8.43981093 L22.63,9.01981093 L22.63,9.28981093 L22.81,9.04981093 L22.87,9.28981093 L22.99,9.28981093 L22.99,9.03981093 L23.1,8.85981093 L22.87,8.85981093 C22.87,8.85981093 23.04,8.65981093 23.05,8.62981093 C23.06,8.59981093 22.99,8.42981093 22.99,8.42981093 L22.98,8.43981093 Z" id="Path"></path>
                <path d="M23.04,9.54981093 C23,9.60981093 23.03,9.71981093 23.04,9.80981093 C23.05,9.89981093 23.25,10.0298109 23.21,10.1898109 C23.17,10.3598109 23.08,10.2698109 23.14,10.4398109 C23.2,10.6098109 23.44,11.0998109 23.53,11.1698109 C23.62,11.2298109 24,11.3698109 23.99,11.3898109 C23.98,11.4098109 24.09,11.5798109 24.09,11.5798109 C24.09,11.5798109 24.18,11.5298109 24.21,11.5298109 C24.24,11.5298109 24.36,11.5798109 24.36,11.5798109 L24.36,11.4498109 C24.36,11.4498109 24.66,11.3998109 24.61,11.4598109 C24.56,11.5198109 24.45,11.5498109 24.47,11.6298109 C24.49,11.6998109 24.52,11.7498109 24.62,11.8698109 C24.72,11.9898109 24.91,12.1298109 24.91,12.1298109 C24.91,12.1298109 24.87,12.0698109 24.97,12.0698109 C25.07,12.0698109 26,12.3298109 26,12.3298109 L26,12.0298109 L25.89,11.8998109 L25.93,12.1198109 C25.93,12.1198109 25.7,12.1698109 25.61,12.0898109 C25.52,12.0098109 25.35,11.9398109 25.35,11.8598109 C25.35,11.7798109 25.37,11.6598109 25.34,11.5898109 C25.31,11.5198109 25.14,11.4198109 25.14,11.3498109 C25.14,11.2798109 25.22,10.7598109 25.28,10.7798109 C25.34,10.7998109 25.77,10.9198109 25.77,10.9198109 L26,10.5898109 C26,10.5898109 25.8,10.7098109 25.74,10.6498109 C25.68,10.5898109 25.65,10.5398109 25.65,10.5398109 C25.65,10.5398109 25.55,10.6898109 25.48,10.6298109 C25.41,10.5798109 25.28,10.4598109 25.28,10.3998109 C25.28,10.3398109 25.38,10.3098109 25.4,10.2398109 C25.42,10.1698109 25.35,9.92981093 25.31,9.88981093 C25.27,9.84981093 24.87,9.75981093 24.82,9.66981093 C24.77,9.58981093 24.49,9.13981093 24.4,9.11981093 C24.31,9.09981093 24.07,9.04981093 24.07,9.04981093 C24.07,9.04981093 23.96,8.89981093 24.01,8.88981093 C24.06,8.87981093 24.2,8.77981093 24.15,8.68981093 C24.1,8.60981093 24.05,8.44981093 24.01,8.45981093 C23.97,8.46981093 23.56,8.52981093 23.56,8.52981093 C23.56,8.52981093 23.45,8.54981093 23.45,8.51981093 C23.45,8.48981093 23.38,8.45981093 23.38,8.45981093 L23.32,8.65981093 L23.38,8.74981093 C23.38,8.74981093 23.26,8.78981093 23.23,8.82981093 C23.2,8.86981093 23.11,9.10981093 23.11,9.10981093 L23.49,8.77981093 C23.49,8.77981093 23.56,8.77981093 23.55,8.87981093 C23.54,8.96981093 23.45,9.10981093 23.45,9.10981093 C23.45,9.10981093 23.35,9.07981093 23.33,9.10981093 C23.31,9.13981093 23.45,9.38981093 23.45,9.38981093 L23.23,9.30981093 L23.23,9.19981093 C23.23,9.19981093 23.12,9.16981093 23.11,9.20981093 C23.1,9.24981093 23.05,9.32981093 23.07,9.39981093 C23.09,9.46981093 23.18,9.54981093 23.18,9.54981093 L23.31,9.47981093 C23.31,9.47981093 23.37,9.57981093 23.31,9.62981093 C23.25,9.66981093 23.1,9.52981093 23.07,9.58981093 L23.04,9.54981093 Z" id="Path"></path>
                <path d="M25.01,8.59981093 C24.9,8.54981093 24.8,8.51981093 24.8,8.51981093 C24.8,8.51981093 24.71,8.62981093 24.74,8.66981093 C24.77,8.69981093 25.01,8.79981093 25.01,8.79981093 C25.01,8.79981093 25.12,8.64981093 25.01,8.59981093 L25.01,8.59981093 Z" id="Path"></path>
                <path d="M25.43,7.81981093 C25.33,7.88981093 25.09,8.19981093 25.1,8.23981093 C25.11,8.27981093 25.05,8.30981093 25.1,8.50981093 C25.15,8.70981093 25.22,8.75981093 25.25,8.78981093 C25.28,8.81981093 25.54,8.36981093 25.54,8.36981093 C25.54,8.36981093 25.55,8.68981093 25.58,8.73981093 C25.61,8.78981093 25.63,8.86981093 25.58,8.91981093 C25.53,8.96981093 25.45,8.97981093 25.46,9.02981093 C25.46,9.07981093 25.48,9.14981093 25.52,9.15981093 C25.56,9.16981093 25.7,9.15981093 25.7,9.15981093 C25.7,9.15981093 25.67,8.90981093 25.74,8.90981093 C25.81,8.90981093 25.9,8.90981093 25.89,8.85981093 C25.88,8.80981093 25.88,8.64981093 25.83,8.59981093 C25.78,8.54981093 25.81,8.57981093 25.74,8.50981093 C25.68,8.43981093 25.61,8.32981093 25.64,8.28981093 C25.66,8.24981093 25.67,7.99981093 25.74,8.08981093 C25.82,8.17981093 25.97,8.35981093 26,8.36981093 C26.03,8.37981093 26.08,8.32981093 26.14,8.37981093 C26.2,8.42981093 26.28,8.42981093 26.26,8.56981093 C26.24,8.69981093 26.17,8.77981093 26.19,8.85981093 C26.21,8.93981093 26.29,9.07981093 26.29,9.07981093 C26.29,9.07981093 26.49,9.04981093 26.49,9.07981093 C26.49,9.10981093 26.34,9.19981093 26.49,9.22981093 C26.64,9.24981093 26.83,9.22981093 26.83,9.22981093 C26.83,9.22981093 26.88,9.22981093 26.95,9.22981093 C27.02,9.22981093 27.06,9.31981093 27.15,9.27981093 C27.24,9.23981093 27.45,9.14981093 27.45,9.09981093 C27.45,9.04981093 27.49,8.85981093 27.45,8.77981093 C27.41,8.69981093 27.28,8.56981093 27.26,8.49981093 C27.24,8.42981093 27.27,8.19981093 27.2,8.14981093 C27.13,8.09981093 26.83,7.89981093 26.83,7.86981093 C26.83,7.83981093 26.85,7.58981093 26.85,7.49981093 C26.85,7.40981093 26.76,7.26981093 26.75,7.18981093 C26.73,7.11981093 26.93,6.96981093 26.93,6.96981093 L27.01,7.07981093 C27.01,7.07981093 27,6.92981093 27.05,6.96981093 C27.1,7.00981093 27.18,6.80981093 27.2,7.02981093 C27.22,7.24981093 27.37,8.10981093 27.36,8.11981093 C27.35,8.12981093 27.44,8.02981093 27.47,8.10981093 C27.5,8.18981093 27.66,8.39981093 27.7,8.48981093 C27.74,8.57981093 27.77,8.59981093 27.82,8.62981093 C27.87,8.65981093 27.98,8.57981093 27.97,8.62981093 C27.96,8.67981093 27.93,9.07981093 27.97,9.07981093 C28.01,9.07981093 28.24,8.96981093 28.24,8.96981093 C28.24,8.96981093 28.41,9.07981093 28.41,9.04981093 C28.41,9.01981093 28.29,8.78981093 28.3,8.68981093 C28.3,8.58981093 28.4,8.43981093 28.46,8.36981093 C28.52,8.29981093 28.93,8.21981093 28.93,8.21981093 C28.93,8.21981093 29.3,7.84981093 29.28,7.79981093 C29.26,7.74981093 27.35,6.63981093 27.35,6.63981093 C27.35,6.63981093 27.09,6.51981093 27.04,6.51981093 C26.99,6.51981093 26.31,6.56981093 26.31,6.56981093 C26.31,6.59981093 26.38,6.68981093 26.38,6.74981093 C26.38,6.80981093 26.37,6.98981093 26.31,6.97981093 C26.25,6.96981093 26.11,6.97981093 26.11,6.97981093 C26.11,6.97981093 26.26,7.05981093 26.17,7.14981093 C26.08,7.22981093 25.51,7.73981093 25.4,7.80981093 L25.43,7.81981093 Z" id="Path"></path>
                <path d="M26.36,9.34981093 C26.31,9.32981093 26.07,9.31981093 26.04,9.28981093 C26.01,9.25981093 26,9.10981093 26,9.10981093 C26,9.12981093 25.54,9.27981093 25.51,9.29981093 C25.48,9.31981093 25.33,9.24981093 25.31,9.28981093 C25.29,9.32981093 25.31,9.41981093 25.31,9.41981093 C25.31,9.41981093 25.57,9.35981093 25.58,9.41981093 C25.58,9.47981093 25.9,9.82981093 25.91,9.87981093 C25.92,9.91981093 25.7,9.75981093 25.7,9.82981093 C25.7,9.89981093 25.81,10.1398109 25.81,10.1398109 L26,10.0498109 C26,10.0498109 25.98,10.2598109 26.08,10.2598109 C26.18,10.2598109 26.31,10.2298109 26.32,10.1998109 C26.33,10.1698109 26.34,10.1098109 26.26,10.0398109 C26.18,9.97981093 26.05,10.0198109 26.18,9.97981093 C26.31,9.93981093 26.62,9.90981093 26.65,9.86981093 C26.68,9.82981093 26.88,9.45981093 26.88,9.45981093 C26.88,9.45981093 26.51,9.36981093 26.51,9.39981093 C26.51,9.42981093 26.49,9.64981093 26.46,9.64981093 C26.43,9.64981093 26.3,9.54981093 26.3,9.54981093 C26.3,9.54981093 26.41,9.38981093 26.36,9.36981093 L26.36,9.34981093 Z" id="Path"></path>
                <path d="M28.2,10.6098109 C28.2,10.6098109 28.79,10.1098109 28.78,10.0598109 C28.77,10.0098109 28.69,9.73981093 28.62,9.63981093 C28.55,9.53981093 28.28,9.40981093 28.28,9.40981093 C28.28,9.40981093 27.97,9.51981093 27.97,9.55981093 L27.97,10.0598109 L28.13,10.1598109 L28.06,10.2598109 L28.2,10.6098109 L28.2,10.6098109 Z" id="Path"></path>
                <path d="M26.54,10.7398109 C26.54,10.7398109 26.26,11.3098109 26.26,11.3598109 C26.26,11.4098109 26.32,12.1798109 26.32,12.1798109 L26.56,12.1298109 C26.56,12.1298109 26.62,12.1898109 26.64,12.3098109 C26.66,12.4198109 26.77,12.4698109 26.8,12.4698109 C26.83,12.4698109 26.96,12.3098109 26.96,12.3098109 C26.96,12.3098109 26.9,12.4798109 26.97,12.4698109 C27.04,12.4598109 27.39,12.5598109 27.39,12.5598109 L27.31,12.7398109 C27.31,12.7398109 27.19,12.5298109 27.18,12.5798109 C27.18,12.6298109 27.03,12.7398109 27.03,12.7398109 L27.18,12.8198109 C27.18,12.8198109 26.97,12.9498109 26.98,12.9898109 C26.98,13.0198109 27.09,13.0798109 27.09,13.0798109 L27.54,13.0098109 L27.4,12.8298109 C27.4,12.8298109 27.44,12.7298109 27.48,12.7898109 C27.52,12.8498109 27.7,12.9398109 27.7,12.9398109 C27.7,12.9398109 27.6,12.8298109 27.7,12.8198109 C27.8,12.8098109 27.83,12.7598109 27.88,12.8598109 C27.93,12.9598109 27.93,13.0698109 28.03,13.0298109 C28.13,12.9898109 28.25,12.9598109 28.24,12.9198109 C28.23,12.8798109 28.19,12.8298109 28.19,12.8298109 C28.19,12.8298109 28.01,12.8498109 28.03,12.8098109 C28.05,12.7698109 28.13,12.5298109 28.16,12.5198109 C28.19,12.5098109 28.24,12.4498109 28.24,12.4498109 C28.24,12.4498109 28.06,12.3998109 28.05,12.2898109 C28.05,12.1898109 28.15,11.8998109 28.15,11.8998109 C28.15,11.8998109 28.08,11.7798109 28,11.8198109 C27.92,11.8598109 27.79,11.9998109 27.82,12.0398109 C27.85,12.0798109 28,12.0898109 27.94,12.1998109 C27.88,12.2998109 27.65,12.5598109 27.62,12.5598109 C27.59,12.5598109 27.42,12.5098109 27.46,12.4398109 C27.5,12.3698109 27.67,12.1598109 27.67,12.1598109 C27.67,12.1598109 27.49,12.2298109 27.46,12.2298109 C27.43,12.2298109 27.33,12.2198109 27.38,12.1498109 C27.43,12.0798109 27.6,11.7898109 27.57,11.7098109 C27.54,11.6398109 27.21,11.2598109 27.24,11.1698109 C27.28,11.0798109 27.59,10.3598109 27.59,10.3598109 C27.59,10.3598109 27.3,10.3398109 27.3,10.2898109 C27.3,10.2398109 27.35,10.1098109 27.29,10.0998109 C27.23,10.0898109 27.21,10.1698109 27.17,10.0898109 C27.14,10.0098109 27.17,9.71981093 27.17,9.71981093 C27.17,9.71981093 27.02,9.77981093 27.02,9.80981093 C27.02,9.83981093 27.06,10.0098109 27.02,10.0398109 C26.98,10.0698109 26.63,10.1098109 26.63,10.2098109 C26.63,10.3098109 26.7,11.0598109 26.7,11.0598109 L26.37,11.2198109 L26.61,10.8998109 C26.61,10.8998109 26.53,10.7398109 26.52,10.7898109 L26.54,10.7398109 Z" id="Path"></path>
                <path d="M28.01,10.7898109 C28.01,10.7898109 27.97,10.9998109 27.97,10.9998109 C27.97,10.9998109 27.78,10.9598109 27.81,10.9998109 C27.84,11.0398109 28.04,11.2998109 28.06,11.3298109 C28.08,11.3598109 27.97,11.6198109 27.97,11.6198109 C27.97,11.6198109 28.06,11.7298109 28.09,11.7098109 C28.12,11.6898109 28.55,11.0898109 28.56,11.0598109 C28.56,11.0298109 28.34,11.0398109 28.37,10.9898109 C28.41,10.9398109 28.56,10.7398109 28.56,10.7398109 C28.52,10.7398109 28.02,10.7598109 28.01,10.7898109 Z" id="Path"></path>
                <path d="M30.92,7.40981093 C30.81,7.30981093 30.72,7.17981093 30.61,7.12981093 C30.5,7.06981093 30.5,7.00981093 30.39,6.94981093 C30.28,6.88981093 30.2,6.74981093 30.17,6.59981093 C30.14,6.43981093 30.07,6.23981093 30.01,6.16981093 C29.95,6.10981093 29.71,5.88981093 29.71,5.88981093 C29.65,5.98981093 29.59,6.40981093 29.6,6.45981093 C29.61,6.50981093 29.7,6.60981093 29.71,6.61981093 C29.72,6.62981093 29.81,6.64981093 29.86,6.66981093 C29.91,6.68981093 29.97,6.71981093 30.05,6.82981093 C30.13,6.93981093 30.26,7.49981093 30.31,7.51981093 C30.36,7.54981093 31.18,8.41981093 31.18,8.35981093 C31.18,8.29981093 31.09,7.60981093 31.06,7.60981093 L30.97,7.60981093 C30.97,7.60981093 31.03,7.50981093 30.92,7.39981093 L30.92,7.40981093 Z" id="Path"></path>
                <path d="M30.62,6.75981093 C30.62,6.75981093 31.02,7.16981093 31.02,7.16981093 C31.02,7.16981093 31.26,7.00981093 31.26,6.97981093 C31.26,6.94981093 31.25,6.70981093 31.21,6.67981093 C31.17,6.64981093 30.91,6.51981093 30.91,6.51981093 C30.91,6.51981093 31.09,6.64981093 31.1,6.71981093 C31.1,6.77981093 31.15,6.88981093 31.1,6.88981093 C31.05,6.88981093 30.59,6.71981093 30.62,6.75981093 L30.62,6.75981093 Z" id="Path"></path>
                <path d="M31.61,8.23981093 C31.61,8.23981093 31.61,8.10981093 31.61,8.02981093 C31.6,7.94981093 31.5,7.86981093 31.5,7.86981093 L31.42,8.12981093 C31.42,8.12981093 31.51,8.07981093 31.54,8.12981093 C31.57,8.17981093 31.61,8.23981093 31.61,8.23981093 L31.61,8.23981093 Z" id="Path"></path>
                <path d="M30.39,8.74981093 C30.38,8.66981093 30.22,8.50981093 30.22,8.50981093 C30.22,8.50981093 29.88,8.55981093 29.88,8.64981093 C29.88,8.73981093 29.78,8.74981093 29.88,8.78981093 C29.98,8.82981093 30.44,8.98981093 30.44,8.98981093 C30.44,8.98981093 30.4,8.82981093 30.38,8.74981093 L30.39,8.74981093 Z" id="Path"></path>
                <path d="M29.99,9.35981093 C29.99,9.35981093 29.97,9.10981093 29.97,9.10981093 L29.9,8.98981093 L29.8,9.10981093 L29.75,8.98981093 C29.75,8.98981093 29.71,8.96981093 29.6,9.06981093 C29.49,9.16981093 29.32,9.43981093 29.31,9.50981093 C29.3,9.56981093 29.28,9.66981093 29.31,9.72981093 C29.34,9.78981093 29.52,9.91981093 29.56,10.0098109 C29.6,10.0998109 29.52,10.4598109 29.52,10.4598109 L30.02,10.3798109 L30.09,10.2598109 C30.09,10.2598109 29.76,10.1998109 29.83,10.1598109 C29.9,10.1198109 30.33,9.87981093 30.31,9.84981093 C30.29,9.81981093 29.8,9.30981093 29.8,9.30981093 C29.8,9.30981093 29.99,9.39981093 29.99,9.36981093 L29.99,9.35981093 Z" id="Path"></path>
                <path d="M30.53,10.6698109 C30.53,10.6698109 30.69,10.7798109 30.78,10.7898109 C30.87,10.7998109 31.29,10.5698109 31.33,10.5598109 C31.37,10.5498109 31.65,10.7398109 31.65,10.7398109 C31.65,10.7398109 31.59,10.3198109 31.51,10.2498109 C31.42,10.1898109 31.17,10.0798109 31.1,9.99981093 C31.03,9.91981093 30.81,9.45981093 30.77,9.45981093 L30.54,9.45981093 C30.54,9.45981093 30.62,9.87981093 30.62,9.93981093 C30.62,9.99981093 30.41,10.2698109 30.44,10.3298109 C30.47,10.3898109 30.5,10.6398109 30.53,10.6598109 L30.53,10.6698109 Z" id="Path"></path>
                <path d="M29.98,11.5898109 L29.6,11.6598109 L29.6,11.8498109 C29.6,11.8498109 29.97,11.8898109 29.98,11.8498109 C29.99,11.8098109 29.98,11.5898109 29.98,11.5898109 Z" id="Path"></path>
                <path d="M29.74,11.9998109 C29.74,11.9998109 29.61,12.0798109 29.6,12.1098109 C29.6,12.1398109 29.79,12.3498109 29.79,12.3498109 C29.79,12.3498109 29.9,12.1998109 29.88,12.1698109 C29.86,12.1398109 29.74,11.9898109 29.74,11.9898109 L29.74,11.9998109 Z" id="Path"></path>
                <path d="M31.69,16.4398109 C31.69,16.4398109 31.69,16.4998109 31.69,16.4998109 C31.69,16.4998109 31.69,16.4798109 31.69,16.4398109 Z" id="Path"></path>
                <path d="M30.32,13.4698109 C30.32,13.5298109 30.22,14.0798109 30.22,14.1498109 C30.22,14.2198109 28.83,16.6698109 28.81,16.7498109 C28.79,16.8298109 28.66,17.3598109 28.68,17.4098109 C28.7,17.4598109 29.05,17.8598109 29.17,17.8998109 C29.29,17.9398109 29.65,18.1298109 29.73,18.3098109 C29.81,18.4998109 29.86,18.8798109 29.94,18.8598109 C30.02,18.8398109 30.38,18.6698109 30.47,18.6798109 C30.56,18.6898109 30.88,18.9198109 30.91,19.0298109 C30.94,19.1398109 31.05,19.7898109 31.05,19.8598109 C31.05,19.9298109 30.79,20.4998109 30.82,20.6198109 C30.85,20.7298109 31.02,21.2598109 31.05,21.3498109 C31.08,21.4298109 30.79,21.4698109 30.87,21.5998109 C30.95,21.7198109 31.21,22.0998109 31.29,22.1398109 C31.37,22.1798109 31.69,22.2698109 31.71,22.3498109 C31.73,22.4198109 31.69,22.5198109 31.71,22.5698109 C31.73,22.6198109 31.6,22.7998109 31.64,22.9098109 C31.68,23.0198109 31.77,23.0798109 31.8,23.0798109 C31.83,23.0798109 32.03,23.0898109 32.09,23.0198109 C32.15,22.9498109 32.18,22.7998109 32.29,22.7398109 C32.4,22.6798109 32.7,22.6398109 32.73,22.6498109 C32.76,22.6598109 33.22,23.1698109 33.22,23.2898109 C33.22,23.4098109 33.11,23.7398109 33.16,23.8298109 C33.21,23.9198109 33.35,24.2498109 33.38,24.2698109 C33.41,24.2798109 33.71,24.2598109 33.74,24.2698109 C33.77,24.2798109 34.13,24.5598109 34.15,24.5198109 C34.17,24.4798109 34.09,24.1598109 34.15,24.1098109 C34.21,24.0598109 34.49,23.8398109 34.5,23.7498109 C34.5,23.6598109 34.59,23.3598109 34.58,23.2598109 C34.57,23.1698109 34.51,22.8998109 34.45,22.7198109 C34.39,22.5398109 34.28,22.3998109 34.26,22.3298109 C34.24,22.2598109 34.21,21.6598109 34.21,21.6598109 C34.21,21.6598109 33.95,21.6098109 33.85,21.5898109 C33.75,21.5698109 33.17,21.2498109 33.14,21.2098109 C33.11,21.1698109 32.51,20.2698109 32.51,20.2698109 C32.51,20.2698109 32.07,20.1998109 32.07,20.2298109 C32.07,20.2598109 32.23,20.7598109 32.24,20.7998109 C32.25,20.8398109 32.16,20.9498109 32.17,21.0298109 C32.18,21.1098109 32.29,21.5198109 32.27,21.5798109 C32.25,21.6398109 32.23,21.8698109 32.16,21.9098109 C32.09,21.9498109 31.8,22.0898109 31.8,22.0598109 C31.8,22.0298109 31.88,21.4398109 31.88,21.4398109 C31.88,21.4398109 31.71,21.2198109 31.71,21.1598109 C31.71,21.0998109 31.76,20.7998109 31.71,20.6798109 C31.66,20.5698109 31.41,20.1498109 31.41,20.1198109 C31.41,20.0898109 31.57,19.7698109 31.57,19.6698109 C31.57,19.5698109 31.29,18.3598109 31.24,18.2398109 C31.19,18.1198109 31.11,17.8398109 30.91,17.7098109 C30.71,17.5898109 30.36,17.3698109 30.31,17.3698109 C30.26,17.3698109 29.24,17.5598109 29.24,17.5598109 C29.24,17.5598109 29.07,17.3398109 29.12,17.2698109 C29.17,17.1998109 29.35,17.1198109 29.53,17.0898109 C29.71,17.0598109 30.23,16.9998109 30.23,16.9998109 C30.23,16.9998109 30.3,16.6998109 30.3,16.6698109 C30.3,16.6398109 30.24,16.2098109 30.24,16.2098109 C30.24,16.2098109 30.41,16.0298109 30.44,16.0298109 C30.47,16.0298109 30.61,15.9798109 30.62,16.0298109 C30.63,16.0798109 30.63,16.1898109 30.63,16.1898109 C30.63,16.1898109 30.4,16.1598109 30.42,16.2498109 C30.44,16.3398109 30.71,16.4998109 30.71,16.4998109 C30.71,16.4998109 30.75,15.9998109 30.87,15.9498109 C30.99,15.8998109 31.21,15.7998109 31.35,15.8898109 C31.49,15.9698109 31.62,15.9998109 31.62,16.1298109 C31.62,16.2198109 31.65,16.3898109 31.66,16.4798109 C31.65,16.3898109 31.64,16.2398109 31.74,16.2398109 C31.88,16.2398109 31.99,16.2398109 32.07,16.1998109 C32.15,16.1598109 32.43,16.0698109 32.43,15.8998109 C32.43,15.7298109 32.23,15.2098109 32.18,15.1698109 C32.13,15.1398109 31.63,14.7898109 31.56,14.7598109 C31.49,14.7298109 31.16,14.6798109 31.19,14.5898109 C31.22,14.5098109 31.37,14.2498109 31.42,14.1398109 C31.47,14.0398109 31.41,13.6698109 31.41,13.6698109 C31.41,13.6698109 31.28,13.7598109 31.27,13.7198109 C31.26,13.6798109 31.15,13.2798109 31.11,13.3498109 C31.07,13.4098109 30.81,13.6598109 30.81,13.6598109 C30.81,13.6598109 30.57,13.7498109 30.61,13.6798109 C30.65,13.6098109 30.64,13.4998109 30.64,13.4998109 C30.64,13.4998109 30.3,13.4398109 30.3,13.4998109 L30.32,13.4698109 Z" id="Path"></path>
                <path d="M26.24,19.2298109 C26.24,19.2298109 25.94,19.5498109 26.01,19.5498109 C26.08,19.5498109 26.26,19.4798109 26.37,19.4698109 C26.48,19.4598109 26.56,19.4398109 26.56,19.3898109 C26.56,19.3398109 26.24,19.2298109 26.24,19.2298109 L26.24,19.2298109 Z" id="Path"></path>
                <path d="M35.22,22.1398109 C35.22,22.1398109 35.03,21.9598109 35.03,21.9598109 C35.03,21.9598109 34.91,21.8598109 34.89,21.9598109 C34.87,22.0598109 34.92,22.2298109 34.96,22.2598109 C35,22.2898109 35.24,22.3698109 35.3,22.3698109 C35.36,22.3698109 35.25,22.1798109 35.22,22.1398109 L35.22,22.1398109 Z" id="Path"></path>
                <path d="M31.3,29.7398109 C31.3,29.7398109 31.2,29.4298109 31.18,29.4898109 C31.16,29.5498109 30.98,29.6098109 30.97,29.7398109 C30.96,29.8598109 30.97,30.0298109 30.97,30.0298109 L31.28,30.1098109 C31.28,30.1098109 31.06,30.2298109 31.07,30.3698109 C31.08,30.4998109 31.14,31.1698109 31.15,31.1998109 C31.15,31.2298109 31.28,31.3098109 31.28,31.3098109 L31.52,31.0998109 C31.52,31.0998109 31.69,31.1698109 31.73,31.3098109 C31.77,31.4398109 31.85,31.6498109 31.88,31.6698109 C31.91,31.6898109 32.27,31.6698109 32.27,31.6698109 L32.57,31.4998109 C32.57,31.4998109 31.92,31.2398109 31.95,31.2298109 C31.98,31.2198109 32.34,31.2298109 32.32,31.1798109 C32.3,31.1298109 32.23,30.8198109 32.23,30.8198109 C32.23,30.8198109 32.07,30.8398109 32.04,30.8198109 C32.01,30.7998109 31.7,30.6098109 31.7,30.6098109 C31.7,30.6098109 31.86,30.6698109 31.96,30.6598109 C32.06,30.6498109 32.2,30.5898109 32.2,30.5898109 C32.2,30.5898109 32.33,30.7298109 32.34,30.6998109 C32.35,30.6698109 32.4,30.4798109 32.37,30.4198109 C32.34,30.3598109 31.95,30.0598109 31.99,30.0198109 C32.03,29.9798109 32.3,29.8598109 32.28,29.7998109 C32.26,29.7398109 32.11,29.7298109 32.12,29.6498109 C32.13,29.5798109 32.19,28.8498109 32.19,28.8498109 C32.19,28.8498109 31.93,28.7798109 31.93,28.8098109 C31.93,28.8398109 31.77,29.0498109 31.77,29.0498109 C31.77,29.0498109 31.57,29.1498109 31.58,29.1198109 C31.58,29.0898109 31.76,28.8698109 31.77,28.8098109 C31.78,28.7498109 31.59,28.4798109 31.59,28.4798109 C31.55,28.5298109 31.35,28.7398109 31.34,28.7798109 C31.33,28.8198109 31.34,29.3398109 31.34,29.3398109 L31.46,29.5798109 L31.3,29.5798109 L31.3,29.7298109 L31.3,29.7398109 Z" id="Path"></path>
                <path d="M32.51,32.4798109 C32.45,32.4298109 32.1,32.3598109 32.1,32.3598109 L32.22,32.6298109 L32.44,32.7098109 C32.44,32.7098109 32.57,32.5298109 32.51,32.4798109 L32.51,32.4798109 Z" id="Path"></path>
                <path d="M31.86,37.0098109 C31.93,37.0498109 32.03,37.0798109 32.09,37.0798109 C32.15,37.0798109 32.21,37.2098109 32.21,37.0798109 C32.21,36.9498109 32.13,35.9798109 32.3,35.9498109 C32.48,35.9198109 32.84,35.8198109 32.84,35.8198109 L32.84,35.6698109 L32.64,35.7098109 C32.64,35.7098109 32.57,35.5798109 32.64,35.5498109 C32.71,35.5298109 32.87,35.4398109 32.92,35.4798109 C32.97,35.5198109 33.13,35.7798109 33.09,35.8498109 C33.05,35.9198109 32.8,36.1498109 32.8,36.1498109 C32.8,36.1498109 32.64,36.0898109 32.64,36.1198109 C32.64,36.1498109 32.48,36.3598109 32.47,36.4598109 C32.46,36.5598109 32.57,36.7598109 32.57,36.7598109 C32.57,36.7598109 32.83,36.7498109 32.85,36.7198109 C32.87,36.6898109 32.99,36.3198109 33.1,36.2598109 C33.2,36.2098109 33.95,35.8398109 33.94,35.7998109 C33.93,35.7698109 33.85,35.6198109 33.7,35.5998109 C33.55,35.5798109 33.09,35.4298109 33.09,35.4298109 C33.09,35.4298109 32.97,35.2998109 33.01,35.2198109 C33.05,35.1498109 33.18,35.0998109 33.18,35.0998109 C33.18,35.0998109 33,34.7098109 33,34.6398109 C33,34.5698109 32.95,34.4198109 33,34.3198109 C33.05,34.2198109 33.12,34.1298109 33.08,34.0598109 C33.04,33.9898109 32.89,33.6798109 32.83,33.5998109 C32.77,33.5298109 32.87,33.3898109 32.83,33.2798109 C32.79,33.1698109 32.77,33.0698109 32.72,33.0798109 C32.67,33.0898109 32.52,33.0798109 32.52,33.0798109 C32.5,33.1598109 32.45,33.6498109 32.44,33.6898109 C32.43,33.7298109 31.99,34.1198109 31.99,34.1998109 C31.99,34.2798109 31.94,35.0498109 31.91,35.1798109 C31.88,35.3098109 31.69,35.4098109 31.71,35.5098109 C31.73,35.6098109 31.82,35.7998109 31.82,35.9298109 C31.82,36.0598109 31.7,36.5898109 31.71,36.6798109 C31.72,36.7598109 31.79,36.9298109 31.86,36.9698109 L31.86,37.0098109 Z" id="Path"></path>
                <path d="M30.55,39.5598109 L30.72,39.0698109 C30.72,39.0698109 30.53,39.1198109 30.5,39.0598109 C30.47,38.9998109 30.23,38.4498109 30.23,38.4498109 C30.23,38.4498109 29.96,38.4798109 29.9,38.4098109 C29.84,38.3398109 29.82,38.1398109 29.75,38.1598109 C29.68,38.1798109 29.55,38.1598109 29.55,38.1598109 C29.55,38.1598109 29.44,38.2898109 29.55,38.3798109 C29.66,38.4598109 30.26,39.4298109 30.33,39.4698109 C30.4,39.5098109 30.56,39.5698109 30.56,39.5698109 L30.55,39.5598109 Z" id="Path"></path>
                <path d="M29.88,39.6198109 C29.88,39.6198109 29.83,39.5698109 29.79,39.5598109 C29.75,39.5598109 29.57,39.5598109 29.57,39.5598109 C29.57,39.5598109 29.58,39.4298109 29.5,39.3298109 C29.42,39.2398109 29.43,39.1598109 29.32,39.1598109 L29.07,39.1598109 C28.98,39.2198109 28.58,39.6898109 28.67,39.7498109 C28.76,39.8098109 29.35,40.0698109 29.45,40.0598109 C29.54,40.0498109 29.82,39.9898109 29.84,39.9598109 C29.86,39.9298109 29.89,39.6098109 29.89,39.6098109 L29.88,39.6198109 Z" id="Path"></path>
                <path d="M28.46,40.8798109 C28.49,40.9298109 28.79,41.4698109 28.84,41.4998109 C28.89,41.5298109 29.03,41.5898109 29.05,41.5498109 C29.07,41.5098109 29.14,41.4898109 29.1,41.4398109 C29.06,41.3898109 28.89,40.9798109 28.89,40.9798109 L29.04,41.1798109 C29.04,41.1798109 29.11,41.1698109 29.11,41.1398109 C29.11,41.1098109 29.07,41.0298109 29.07,41.0298109 C29.07,41.0298109 29.41,41.2098109 29.41,41.1498109 C29.41,41.0898109 29.22,40.8998109 29.26,40.8498109 C29.3,40.7998109 29.38,40.8198109 29.41,40.6998109 C29.44,40.5898109 29.5,40.4198109 29.36,40.3298109 C29.22,40.2398109 28.97,40.1298109 28.97,40.1298109 C28.97,40.1298109 28.81,40.1798109 28.75,40.2798109 C28.69,40.3698109 28.65,40.6298109 28.65,40.6498109 C28.65,40.6698109 28.71,40.7298109 28.7,40.7698109 C28.69,40.8098109 28.43,40.8198109 28.46,40.8698109 L28.46,40.8798109 Z" id="Path"></path>
                <path d="M30.11,40.6098109 C30.11,40.6098109 29.99,40.7698109 29.98,40.8098109 C29.97,40.8498109 29.98,41.0798109 29.98,41.0798109 C29.98,41.0798109 30.04,40.9598109 30.04,40.9098109 C30.04,40.8698109 30.11,40.6098109 30.11,40.6098109 L30.11,40.6098109 Z" id="Path"></path>
                <path d="M27.14,38.1498109 C27.12,38.2598109 26.97,38.5098109 26.97,38.5098109 L27.14,38.6398109 C27.14,38.6398109 27.32,38.2998109 27.29,38.2798109 C27.26,38.2598109 27.14,38.1498109 27.14,38.1498109 Z" id="Path"></path>
                <path d="M26.33,37.9398109 C26.23,37.9298109 25.93,38.0098109 25.92,38.0598109 C25.91,38.1098109 25.78,39.0498109 25.8,39.0898109 C25.82,39.1198109 26.27,39.6598109 26.28,39.6898109 C26.29,39.7198109 26.42,40.5998109 26.42,40.5998109 C26.42,40.5998109 26.67,40.4498109 26.69,40.4098109 C26.71,40.3698109 26.93,39.7498109 26.96,39.6698109 C26.99,39.5998109 26.88,39.0398109 26.8,38.9798109 C26.72,38.9198109 26.57,38.8298109 26.57,38.7798109 C26.57,38.7298109 26.73,38.3098109 26.68,38.2498109 C26.63,38.1898109 26.53,38.1498109 26.58,38.0498109 C26.63,37.9598109 26.96,37.5398109 26.96,37.5398109 L26.43,37.8898109 L26.43,38.0498109 L26.29,38.0498109 C26.29,38.0498109 26.43,37.9398109 26.33,37.9298109 L26.33,37.9398109 Z" id="Path"></path>
                <path d="M25.84,39.3598109 L25.71,39.1598109 C25.71,39.2098109 25.76,39.8298109 25.8,39.8598109 C25.84,39.8898109 25.94,39.8098109 25.94,39.8598109 C25.94,39.9098109 25.78,39.9298109 25.82,40.0198109 C25.87,40.0998109 26.21,40.5398109 26.21,40.5398109 L26.21,40.3498109 C26.21,40.3498109 26.03,40.1698109 26.05,40.1198109 C26.07,40.0698109 26.17,40.0598109 26.15,39.9198109 C26.13,39.7898109 25.84,39.3498109 25.84,39.3498109 L25.84,39.3598109 Z" id="Path"></path>
                <path d="M9.38,55.6698109 C9.42,55.7798109 9.77,56.0398109 9.77,56.0798109 C9.77,56.1198109 9.73,56.6198109 9.73,56.6198109 L10.04,56.5698109 C10.04,56.5698109 10.2,56.4898109 10.16,56.3798109 C10.12,56.2798109 10.02,56.0898109 10.03,55.9698109 C10.03,55.8498109 10.09,55.3698109 10.06,55.3598109 C10.03,55.3498109 9.51,55.0898109 9.51,55.0898109 L9.51,54.9298109 C9.51,54.9298109 9.75,55.1898109 9.77,55.0198109 C9.79,54.8498109 9.56,54.5698109 9.56,54.5698109 C9.51,54.6298109 9.39,54.9298109 9.39,54.9598109 C9.39,54.9898109 9.39,55.4798109 9.39,55.5198109 C9.4,55.5598109 9.34,55.5398109 9.39,55.6498109 L9.38,55.6698109 Z" id="Path"></path>
                <path d="M18.34,62.5998109 C18.46,62.6498109 18.73,62.7198109 18.81,62.7298109 C18.89,62.7398109 18.97,62.5098109 18.97,62.5098109 C18.97,62.5098109 19,62.4798109 18.88,62.4398109 C18.76,62.3998109 18.72,62.0398109 18.43,61.8798109 C18.14,61.7198109 17.72,61.4598109 17.72,61.4598109 C17.72,61.4598109 17.67,61.8298109 17.72,61.9898109 C17.77,62.1498109 18.21,62.5498109 18.33,62.5998109 L18.34,62.5998109 Z" id="Path"></path>
                <path d="M25.77,64.5198109 C25.76,64.4398109 25.54,64.3198109 25.54,64.3198109 C25.6,64.5098109 25.77,64.9898109 25.77,64.9498109 C25.77,64.9098109 25.78,64.5998109 25.77,64.5098109 L25.77,64.5198109 Z" id="Path"></path>
                <polygon id="Path" points="26.8 67.2798109 26.88 67.5598109 26.99 67.3198109"></polygon>
                <path d="M32.73,75.7798109 C32.73,75.7798109 32.55,75.6898109 32.55,75.6898109 L32.15,75.7598109 C32.15,75.7598109 32.49,75.8598109 32.55,75.8598109 C32.61,75.8598109 32.75,75.8198109 32.73,75.7698109 L32.73,75.7798109 Z" id="Path"></path>
                <path d="M34.49,76.2898109 L33.75,76.1798109 C33.75,76.1798109 33.98,76.2398109 34.02,76.2898109 C34.06,76.3398109 34.48,76.2898109 34.48,76.2898109 L34.49,76.2898109 Z" id="Path"></path>
            </g>
        </g>
    </g>
</svg>